<svg id="digital-marketing_1_" data-name="digital-marketing (1)" xmlns="http://www.w3.org/2000/svg" width="72.512" height="67.678" viewBox="0 0 72.512 67.678">
  <g id="Group_15" data-name="Group 15" transform="translate(0 0)">
    <g id="Group_14" data-name="Group 14" transform="translate(0 0)">
      <path id="Path_6" data-name="Path 6" d="M71.3,74.008H70.095V30.5a4.834,4.834,0,0,0-4.834-4.834H54.384v-8.46a1.208,1.208,0,0,0-1.431-1.188L45.7,17.379l-1.209.227L33.726,19.625H26.588a2.417,2.417,0,0,0-2.417,2.417,6.042,6.042,0,0,0-5.53,3.626H7.251A4.834,4.834,0,0,0,2.417,30.5V74.008H1.209A1.209,1.209,0,0,0,0,75.217v3.626a4.834,4.834,0,0,0,4.834,4.834H67.677a4.834,4.834,0,0,0,4.834-4.834V75.217A1.209,1.209,0,0,0,71.3,74.008ZM35.047,21.836l16.919-3.172V37.511L35.047,34.332Zm0,14.949,2.417.453v1.722H35.047Zm-8.46-14.744H32.63V34.127H26.588ZM29,43.8V36.544H32.63V43.8Zm3.626,2.417v1.813a1.813,1.813,0,1,1-3.626,0V46.212Zm-8.46-21.753V31.71a3.626,3.626,0,1,1,0-7.251ZM4.834,30.5a2.417,2.417,0,0,1,2.417-2.417H18.128a6.05,6.05,0,0,0,6.043,6.043,2.417,2.417,0,0,0,2.417,2.417V48.025a4.23,4.23,0,0,0,8.46,0V41.378h3.626a1.209,1.209,0,0,0,1.209-1.209V37.7l13.071,2.451a1.248,1.248,0,0,0,.222.021,1.209,1.209,0,0,0,1.209-1.209V28.084H65.26A2.417,2.417,0,0,1,67.677,30.5V74.008H47.133a1.209,1.209,0,0,0-.854.353l-2.063,2.064H28.3l-2.063-2.064a1.209,1.209,0,0,0-.854-.353H4.834Zm65.26,48.341a2.417,2.417,0,0,1-2.417,2.417H4.834a2.417,2.417,0,0,1-2.417-2.417V76.425H24.879l2.063,2.063a1.208,1.208,0,0,0,.854.354H44.715a1.208,1.208,0,0,0,.854-.354l2.063-2.063H70.095Z" transform="translate(0 -15.999)" fill="#d5893d"/>
    </g>
  </g>
  <g id="Group_17" data-name="Group 17" transform="translate(8.522 15.568)">
    <g id="Group_16" data-name="Group 16" transform="translate(0 0)">
      <path id="Path_7" data-name="Path 7" d="M110.262,120h-4.823v2.435h3.617v32.87H58.412v-32.87h6.029V120H57.206A1.212,1.212,0,0,0,56,121.217v35.305a1.212,1.212,0,0,0,1.206,1.217h53.056a1.212,1.212,0,0,0,1.206-1.217V121.217A1.212,1.212,0,0,0,110.262,120Z" transform="translate(-56 -120)" fill="#d5893d"/>
    </g>
  </g>
  <g id="Group_19" data-name="Group 19" transform="translate(35.319 55.593)">
    <g id="Group_18" data-name="Group 18">
      <rect id="Rectangle_32" data-name="Rectangle 32" width="2.417" height="2.417" fill="#d5893d"/>
    </g>
  </g>
  <g id="Group_21" data-name="Group 21" transform="translate(17.331 40.077)">
    <g id="Group_20" data-name="Group 20">
      <rect id="Rectangle_33" data-name="Rectangle 33" width="2.417" height="2.417" fill="#d5893d"/>
    </g>
  </g>
  <g id="Group_23" data-name="Group 23" transform="translate(21.973 40.077)">
    <g id="Group_22" data-name="Group 22">
      <rect id="Rectangle_34" data-name="Rectangle 34" width="36.249" height="2.417" fill="#d5893d"/>
    </g>
  </g>
  <g id="Group_25" data-name="Group 25" transform="translate(14.804 44.874)">
    <g id="Group_24" data-name="Group 24">
      <rect id="Rectangle_35" data-name="Rectangle 35" width="39.874" height="2.417" fill="#d5893d"/>
    </g>
  </g>
</svg>
