<?xml version="1.0" encoding="utf-8"?>
<!-- Generator: Adobe Illustrator 24.0.3, SVG Export Plug-In . SVG Version: 6.00 Build 0)  -->
<svg version="1.1" id="Layer_0_xA0_Image_1_" xmlns="http://www.w3.org/2000/svg" xmlns:xlink="http://www.w3.org/1999/xlink"
	 x="0px" y="0px" viewBox="0 0 786.72 442.32" enable-background="new 0 0 786.72 442.32" xml:space="preserve">
<g>
	<path fill="#FDC03E" d="M616.12,426.96c-0.07-0.79-0.21-1.58-0.21-2.37c-0.02-6.06-0.03-12.12,0.02-18.18
		c0.01-0.81-0.55-2.29,0.92-2.21c1.16,0.06,0.48,1.43,0.68,2.21c0.04,0.15,0.06,0.31,0.1,0.49c0.71,0.17,0.87-0.52,1.23-0.84
		c2.61-2.3,5.98-2.79,9.12-1.28c2.82,1.36,4.55,4.53,4.27,7.92c-0.27,3.26-1.61,5.86-4.8,7.09c-3.24,1.25-6.26,0.88-8.81-1.7
		c-0.21-0.21-0.47-0.38-1.12-0.89c0.01,3.51-0.04,6.63,0.04,9.76C617.08,426.96,616.6,426.96,616.12,426.96z M630.6,412.08
		c0-4.1-2.49-6.68-6.46-6.7c-3.74-0.02-6.54,2.84-6.57,6.73c-0.03,3.92,2.66,6.75,6.48,6.78
		C628.17,418.92,630.61,416.39,630.6,412.08z"/>
	<path fill="#FDC03E" d="M262.97,426.96c-0.07-0.79-0.19-1.59-0.2-2.38c-0.02-6.07-0.03-12.14,0.02-18.21
		c0.01-0.77-0.5-2.1,0.73-2.17c1.38-0.08,0.66,1.29,0.85,2.02c0.06,0.23,0.07,0.47,0.1,0.71c0.75,0.15,0.88-0.56,1.26-0.89
		c3.38-2.94,8.3-2.83,11.26,0.28c2.89,3.04,2.89,8.84-0.07,11.84c-2.48,2.51-7.83,3.55-11.27,0.07c-0.27-0.27-0.47-0.65-1.24-0.69
		c-0.05,3.14-0.05,6.28,0.01,9.42C263.93,426.96,263.45,426.96,262.97,426.96z M277.5,412.17c0.01-4.11-2.45-6.72-6.39-6.79
		c-3.74-0.07-6.64,2.83-6.68,6.65c-0.04,3.95,2.63,6.8,6.42,6.85C275.01,418.95,277.5,416.43,277.5,412.17z"/>
	<path fill="#FEC141" d="M160.28,426.96c0-6.63,0.01-13.26,0.01-19.9c0-0.48-0.03-0.96,0.01-1.44c0.05-0.59-0.23-1.47,0.74-1.46
		c0.98,0,0.64,0.9,0.72,1.47c0.06,0.45,0.05,0.9,0.09,1.78c2.41-2.61,4.99-4,8.27-3.38c1.85,0.35,3.48,1.17,4.67,2.69
		c2.64,3.37,2.32,8.8-0.68,11.64c-3.33,3.16-8.01,2.74-12.38-1.32c0,3.47,0,6.69,0,9.92C161.24,426.96,160.76,426.96,160.28,426.96z
		 M168.42,418.88c4.04,0.02,6.68-2.71,6.63-6.84c-0.05-3.87-2.65-6.58-6.37-6.65c-3.89-0.07-6.85,2.86-6.84,6.76
		C161.85,415.99,164.66,418.87,168.42,418.88z"/>
	<path fill="#FEC141" d="M505.76,426.96c0.54-1.24,0.96-2.56,1.66-3.71c1.4-2.29,1.12-4.4,0.03-6.75
		c-1.62-3.47-2.95-7.07-4.35-10.63c-0.2-0.52-0.91-1.29-0.14-1.68c1.03-0.52,1.32,0.49,1.61,1.23c0.56,1.41,1.09,2.83,1.65,4.24
		c0.91,2.3,1.84,4.59,2.77,6.89c0.14,0.35,0.22,0.79,0.84,0.86c0.63-0.66,0.85-1.6,1.21-2.45c1.31-3.09,2.59-6.18,3.89-9.27
		c0.18-0.44,0.36-0.9,0.64-1.28c0.25-0.34,0.69-0.44,1.08-0.27c0.52,0.22,0.31,0.64,0.16,1c-0.4,0.96-0.8,1.91-1.21,2.87
		c-2.56,5.94-5.12,11.87-7.68,17.81c-0.16,0.37-0.33,0.73-0.24,1.15C507.04,426.96,506.4,426.96,505.76,426.96z"/>
	<path fill="#C4D4E5" d="M64.32,356.44c0.25-0.01,0.5-0.02,0.74-0.03c-0.27,2.1-0.28,4.2,0.04,6.3c-0.26-0.01-0.52-0.02-0.78-0.03
		C64.32,360.6,64.32,358.52,64.32,356.44z"/>
	<path fill="#C4D4E5" d="M722.71,361.21c0.14-0.01,0.27-0.01,0.41,0.02c0,2.24,0,4.48,0,6.72c-0.14,0.01-0.28,0.01-0.42,0.02
		C722.7,365.72,722.71,363.47,722.71,361.21z"/>
	<path fill="#0D59A5" d="M301.42,111.32c-0.44-9.18,0.87-18.16,3.34-26.97c9.5-33.93,37.75-59.96,72.45-65.92
		c32.45-5.57,60.6,3.59,83.73,27.03c13.81,13.99,21.86,31.08,24.77,50.56c0.85,5.71,1.13,11.43,0.84,17.19
		c-0.72-1.47-0.57-3.11-0.82-4.66c-2.98-19.03-10.96-35.63-24.22-49.58c-17.32-18.22-38.72-27.75-63.76-29.1
		c-7.77-0.42-15.49,0.34-23.09,1.96c-32.69,6.97-58.94,30.83-69.11,62.68c-1.75,5.49-2.78,11.14-3.79,16.79
		C301.64,111.3,301.53,111.31,301.42,111.32z"/>
	<path fill="#0D59A5" d="M423.71,300.8c-6.21-6.16-11.65-12.92-16.02-20.53c-6.66-11.59-10.8-24.01-11.9-37.34
		c-2.52-30.46,7.42-56.3,29.63-77.18c13.62-12.81,29.93-20.65,48.48-23.29c30.05-4.28,56.21,4.17,78.43,24.8
		c0.43,0.4,1.34,0.65,0.97,1.6c-0.93,0.13-1.42-0.64-2.04-1.08c-19.22-13.52-40.52-19.07-63.9-16.74
		c-10.44,1.04-20.37,3.87-29.82,8.37c-30.2,14.36-50.08,43.76-52.68,75.73c-0.78,9.56-0.25,18.98,1.82,28.32
		c2.82,12.73,8.17,24.32,15.89,34.84C423.11,299.03,423.99,299.66,423.71,300.8z"/>
	<path fill="#0D59A5" d="M235.63,167.47c3.36-3.68,7.29-6.7,11.35-9.52c12.84-8.92,27.01-14.45,42.6-16.02
		c28.14-2.83,52.81,5.22,73.59,24.4c15.88,14.65,25.51,32.86,28.45,54.3c4.14,30.29-4.75,56.48-25.77,78.6
		c-0.22,0.23-0.5,0.39-0.75,0.58c-0.2-0.01-0.4-0.03-0.6-0.04c0.33-0.92,1.03-1.61,1.58-2.39c15.31-21.75,20.6-45.79,15.7-71.86
		c-3.79-20.17-13.5-37.3-28.83-51c-20.51-18.33-44.61-26.07-72.01-23.5c-12.01,1.12-23.25,4.74-33.9,10.34
		c-3.75,1.97-7.21,4.41-10.82,6.61C236.03,167.81,235.83,167.64,235.63,167.47z"/>
	<path fill="#FDBA2C" d="M382.88,154.58c0.3-1.87,0.53-3.43,0.8-5c0.23-1.36,0.13-2.71-0.17-4.04c-0.53-2.31-1.54-3.26-3.9-3.57
		c-2.47-0.32-4.95,0.02-7.43,0.01c-1.36-0.01-2.73,0.1-4.07-0.07c-3.82-0.46-5.83-3.83-4.29-7.36c0.71-1.64,0.34-2.71-0.87-3.8
		c-0.76-0.68-1.73-1.36-0.28-2.42c0.67-0.49,0.09-0.92-0.39-1.27c-1.68-1.22-1.67-1.23-0.6-3.03c0.87-1.45,0.19-2.86-1.53-3.12
		c-0.87-0.13-1.76-0.16-2.61-0.34c-2.71-0.59-3.55-2.4-2.14-4.76c1.75-2.95,3.54-5.9,5.42-8.76c1.71-2.6,2.09-5.14,0.23-7.79
		c-0.48-0.69-0.6-1.43-0.47-2.27c1.27-8.28,4.33-15.67,10.48-21.58c4.33-4.17,9.52-6.69,15.36-7.89
		c11.94-2.45,22.99-0.48,32.46,7.45c9.51,7.96,14.75,18.12,14.39,30.77c-0.13,4.41-1.76,8.42-3.75,12.28
		c-2.35,4.56-5.18,8.82-8.4,12.81c-2.03,2.51-2.56,5.22-1.61,8.3c1.46,4.73,2.84,9.49,4.23,14.24c0.22,0.75,0.65,1.48,0.4,2.34
		c-0.54,0.45-1.2,0.28-1.82,0.28c-5.68,0.01-11.35,0.01-17.03,0.01c-2.07,0-2.12-0.01-2.38-2.2c-0.54-4.45-1.26-8.85-2.63-13.13
		c-0.71-2.22-1.65-4.33-2.65-6.42c-1.26-2.64-1.94-5.41-1.73-8.35c0.22-3.09,1.39-5.8,3.77-7.76c2.34-1.93,4.03-4.31,5.48-6.9
		c2.67-4.78,4.51-9.89,5.67-15.22c1.27-5.83,6.42-7.91,10.53-8.12c0.21-0.01,0.42,0.15,0.69,0.24c0.01,0.97-0.6,1.65-0.98,2.41
		c-3.33,6.68-5.44,13.63-5.08,21.2c0.07,1.45,0.21,2.86,0.52,4.27c0.42,1.9,0.74,2.06,2.33,1.06c3.47-2.18,6.13-5.11,7.83-8.84
		c4.55-9.99,1.32-23.33-7.84-30.23c-9.68-7.29-20.71-9.48-32.45-6.38c-9.07,2.4-14.77,8.56-17.38,17.54
		c-1.55,5.33-2.14,10.79-2.02,16.35c0.16,7.11,3.07,13.13,7.34,18.61c2.86,3.66,6.02,7.05,9.31,10.32c1.89,1.88,3.46,3.99,4.43,6.49
		C389.95,145.87,387.89,151.62,382.88,154.58z"/>
	<path fill="#C4D4E5" d="M423.71,300.8c0.28-1.13-0.6-1.77-1.14-2.51c-7.71-10.51-13.06-22.11-15.89-34.84
		c-2.07-9.34-2.6-18.76-1.82-28.32c2.6-31.97,22.48-61.38,52.68-75.73c9.45-4.49,19.38-7.32,29.82-8.37
		c23.38-2.33,44.67,3.22,63.9,16.74c0.62,0.44,1.11,1.2,2.04,1.08c0,0-0.05-0.02-0.05-0.02c0.13,0.55,0.41,0.83,0.99,0.51
		c0,0-0.03-0.02-0.03-0.02c-0.15,0.48,0.12,0.56,0.51,0.52c0,0-0.04-0.04-0.04-0.04c-0.04,0.38,0.18,0.51,0.51,0.52
		c0,0-0.05-0.04-0.05-0.04c0.22,0.18,0.45,0.35,0.67,0.53c1.33,0.75,1.85,2.14,2.61,3.34c0.09,0.14,0,0.47-0.12,0.64
		c-0.14,0.21-0.41,0.19-0.63,0.05c-1.15-0.71-2.3-1.43-3.45-2.14c-8.15-5.01-16.93-8.51-26.23-10.7
		c-5.73-1.34-11.53-2.39-17.46-2.27c-0.87,0.02-1.75,0.05-2.61-0.27c-0.43-0.16-0.96-0.22-1.41-0.15
		c-4.25,0.68-8.59,0.28-12.84,0.98c-6.13,1-12.19,2.33-18.05,4.45c-10.13,3.67-19.49,8.7-27.79,15.64
		c-2.81,2.35-5.67,4.65-8.18,7.34c-5.01,5.38-9.54,11.11-13.28,17.46c-3.46,5.87-6.21,12.05-8.38,18.49
		c-1.6,4.75-2.61,9.66-3.44,14.61c-1.15,6.81-1.21,13.67-0.86,20.51c0.32,6.1,1.42,12.14,3.03,18.07
		c2.55,9.39,6.46,18.15,11.73,26.32c0.29,0.46,0.79,0.82,0.81,1.43c0,0.07-0.05,0.14-0.15,0.4
		C427.14,303.8,424.95,302.96,423.71,300.8z"/>
	<path fill="#C4D4E5" d="M236.23,167.98c3.61-2.2,7.06-4.64,10.82-6.61c10.65-5.59,21.89-9.21,33.9-10.34
		c27.4-2.57,51.49,5.17,72.01,23.5c15.33,13.7,25.04,30.83,28.83,51c4.9,26.07-0.39,50.1-15.7,71.86c-0.55,0.78-1.25,1.46-1.58,2.39
		c-0.64,0.33-1,0.9-1.27,1.53c0,0,0.04-0.05,0.04-0.05c-0.18,0.18-0.35,0.35-0.53,0.53c0,0,0.04-0.07,0.04-0.06
		c-0.04,0.11-0.07,0.24-0.09,0.37c-1.01,1.57-2.68,2.22-4.24,3.02c1.03-2.61,2.88-4.74,4.2-7.19c2.06-3.8,3.89-7.68,5.51-11.67
		c2.74-6.75,4.31-13.81,5.52-20.96c0.36-2.11,0.47-4.27,0.57-6.41c0.1-2.23-0.01-4.48,0.05-6.71c0.24-8.27-0.96-16.35-3.15-24.3
		c-3.41-12.3-9.04-23.47-17.05-33.44c-3.06-3.81-6.3-7.44-9.92-10.69c-5.46-4.92-11.45-9.13-17.88-12.74
		c-7.37-4.13-15.2-7.01-23.36-8.98c-5.88-1.42-11.84-2.45-17.94-2.28c-0.88,0.02-1.75,0.05-2.6-0.29c-0.36-0.14-0.79-0.17-1.18-0.14
		c-7.12,0.6-14.27,0.89-21.26,2.64c-10.55,2.64-20.4,6.81-29.5,12.78c-0.4,0.26-0.77,0.55-1.59,0.55c0.77-1.2,1.16-2.45,2.28-3.26
		c0,0-0.05,0.01-0.05,0.01c0.13-0.14,0.25-0.28,0.38-0.42c-0.02-0.16,0.05-0.24,0.21-0.24c0,0,0.13-0.13,0.13-0.13
		c0.15-0.16,0.31-0.32,0.46-0.47c0,0-0.07,0.04-0.07,0.04c0.39-0.07,0.78-0.15,1.02-0.52c0,0-0.05,0.04-0.05,0.04
		C234.36,169.75,235.29,168.86,236.23,167.98z"/>
	<path fill="#C4D4E5" d="M301.76,111.3c1.01-5.65,2.03-11.3,3.79-16.79c10.17-31.85,36.42-55.71,69.11-62.68
		c7.61-1.62,15.33-2.38,23.09-1.96c25.04,1.35,46.44,10.88,63.76,29.1c13.26,13.95,21.24,30.56,24.22,49.58
		c0.24,1.55,0.09,3.19,0.82,4.66c0.51,0.31,0.55,0.8,0.34,1.25c-0.79,1.71-0.86,3.54-0.99,5.45c-3.86-20.32-13-37.75-28.05-51.94
		c-15.05-14.2-33-22.35-53.48-24.73c-15.78-1.83-31.13,0.37-45.85,6.42c-14.74,6.06-27.09,15.35-37.12,27.76
		c-10,12.38-16.08,26.54-19.25,42.09c0.03-1.96-1.04-3.72-0.62-5.63C301.7,113.04,301.86,112.18,301.76,111.3z"/>
	<path fill="#125CA7" d="M599.8,358.86c2.16,0,4.32-0.01,6.48,0c0.53,0,1.2-0.16,1.27,0.68c0.06,0.72,0.17,1.45-0.87,1.65
		c-2.62,0.5-3.43,2.42-3.49,4.76c-0.1,3.59-0.07,7.19-0.1,10.79c-0.02,1.93-0.01,1.97-1.81,2.36c-5.08,1.12-10.16,2.04-15.42,1.41
		c-10.68-1.27-18.71-9.67-19.02-20.38c-0.37-12.53,8.83-21.29,18.7-22.54c5.24-0.66,10.17,0.11,14.98,2.14
		c1.12,0.47,1.82,1.04,1.87,2.42c0.07,1.91,0.43,3.8,0.65,5.71c0.06,0.54,0.22,1.22-0.56,1.35c-0.67,0.11-1.46,0.36-1.85-0.56
		c-0.09-0.22-0.17-0.45-0.27-0.67c-3.11-6.94-10-9.94-17.24-7.53c-3.14,1.05-5.3,3.15-6.79,6.05c-1.49,2.91-2.02,6.05-2.15,9.26
		c-0.2,4.82,0.14,9.59,2.15,14.08c1.73,3.85,4.46,6.66,8.73,7.5c3.43,0.67,6.84,0.26,10.17-0.77c1-0.31,1.34-0.89,1.32-1.94
		c-0.06-2.96,0.03-5.92-0.04-8.87c-0.07-3.1-0.71-3.86-3.76-4.57c-0.85-0.2-1.25-0.51-1.21-1.41c0.05-1.18,0.91-0.89,1.56-0.9
		C595.32,358.85,597.56,358.86,599.8,358.86z"/>
	<path fill="#125CA7" d="M65.1,362.71c-0.31-2.1-0.31-4.2-0.04-6.3c1.33-8.3,5.71-14.37,13.56-17.49
		c6.89-2.74,13.79-1.98,20.47,1.08c0.82,0.38,1.21,0.89,1.28,1.8c0.17,2.07,0.45,4.13,0.68,6.19c0.05,0.47,0.19,1.04-0.45,1.18
		c-0.67,0.14-1.44,0.41-1.91-0.43c-0.15-0.28-0.25-0.59-0.37-0.88c-2.5-6.49-8.06-8.61-14.51-7.99c-4.82,0.46-8.06,3.19-9.92,7.6
		c-1.75,4.15-2,8.52-1.69,12.94c0.17,2.47,0.53,4.92,1.29,7.3c2.45,7.62,7.98,10.96,16.12,9.72c4.99-0.76,4.99-0.76,4.99-5.74
		c0-2,0.04-4-0.07-5.99c-0.18-3.17-0.71-3.75-3.81-4.55c-0.39-0.1-0.8-0.13-1.04-0.5c-0.5-0.77,0.04-1.75,1.03-1.78
		c1.92-0.04,3.84-0.01,5.75-0.01c2.64,0,5.28,0,7.91,0.01c0.55,0,1.18-0.08,1.22,0.75c0.03,0.64,0.13,1.34-0.75,1.51
		c-2.98,0.6-3.63,2.78-3.66,5.38c-0.03,3.52-0.09,7.03-0.04,10.55c0.02,1.27-0.38,1.8-1.67,2.06c-5.1,1-10.16,1.99-15.43,1.44
		C76.41,379.74,66.68,373.97,65.1,362.71z"/>
	<path fill="#115CA7" d="M528.23,368.56c-0.4-0.26-0.76-0.45-1.07-0.7c-3.62-2.99-4.02-7.08-2.68-10.36c1.64-4.02,5-5.57,9.14-5.79
		c1.62-0.09,3.19,0.25,4.74,0.61c3.04,0.7,6.09,1.28,9.23,1.14c0.5-0.02,1.26-0.28,1.43,0.45c0.22,0.93,0.21,1.9-0.04,2.84
		c-0.04,0.14-0.4,0.23-0.62,0.26c-0.39,0.04-0.8,0.01-1.2,0.02c-2.64,0.06-2.64,0.06-2.45,2.59c0.44,5.84-2.46,9.42-8.3,10.21
		c-1.51,0.2-3.03,0.23-4.54,0c-0.67-0.1-1.27-0.07-1.72,0.52c-0.63,0.81-1.57,1.57-1.11,2.72c0.39,0.97,1.48,0.87,2.32,0.91
		c2.07,0.08,4.15,0.01,6.22,0.04c1.36,0.02,2.72,0,4.07,0.15c5.24,0.56,6.86,4.2,5.58,8.96c-0.47,1.74-1.63,3.08-3.03,4.2
		c-2.85,2.29-6.19,3.26-9.74,3.57c-2.14,0.19-4.31,0.23-6.42-0.36c-1.08-0.3-2.12-0.72-3.06-1.33c-3.25-2.11-3.71-5.43-1.16-8.35
		c0.31-0.36,0.64-0.74,1.03-0.99c1.2-0.76,1.04-1.41,0.15-2.41c-1.42-1.59-1.37-2.63-0.26-4.56
		C525.62,371.36,527,370.23,528.23,368.56z M534.52,379.19c-1.19,0-2.38-0.01-3.58,0.01c-0.32,0-0.63,0.06-0.95,0.12
		c-1.47,0.29-3.31,2.42-3.54,4.09c-0.2,1.52,0.63,2.73,2.7,3.43c4.02,1.37,7.98,1.13,11.78-0.83c0.49-0.25,0.93-0.61,1.36-0.96
		c1.12-0.93,1.77-2.09,1.37-3.57c-0.39-1.48-1.68-1.83-2.97-1.98C538.65,379.27,536.6,378.99,534.52,379.19z M539.27,362.21
		c-0.15-2.2-0.33-4.18-1.43-5.93c-0.92-1.46-2.3-2.21-4.02-2.12c-1.72,0.09-3.05,0.92-3.7,2.57c-1.14,2.91-0.94,5.79,0.59,8.5
		c1.05,1.85,2.87,2.62,4.88,2.22c1.94-0.39,3-1.68,3.4-3.56C539.12,363.28,539.19,362.65,539.27,362.21z"/>
	<path fill="#105BA7" d="M722.71,361.21c-0.01,2.25-0.01,4.51-0.02,6.76c-0.58,4.1-2.65,7.34-5.89,9.79
		c-3.14,2.37-6.67,2.9-10.44,1.7c-0.52-0.17-0.99-0.54-1.58-0.46c-0.08,0.01-0.15,0.04-0.32,0.08c-0.22,1.79-0.15,3.62-0.03,5.44
		c0.13,1.94,0.98,3.34,3,3.82c0.61,0.14,1.26,0.22,1.24,1.14c-0.02,0.82-0.12,1.39-1.14,1.39c-3.92-0.02-7.83-0.02-11.75,0
		c-0.68,0-1.08-0.21-1.06-0.93c0.02-0.6-0.21-1.31,0.75-1.48c2.93-0.52,3.52-2.69,3.53-5.17c0.03-7.99-0.02-15.98,0.04-23.97
		c0.01-1.3-0.61-1.8-1.6-2.33c-0.89-0.48-2.47-0.43-2.28-2c0.17-1.35,1.59-1.09,2.48-1.45c1.33-0.54,2.72-0.93,4.09-1.36
		c2.53-0.79,2.53-0.78,2.62,1.78c0.01,0.32,0.05,0.63,0.08,1.02c1.13,0.13,1.7-0.8,2.47-1.24c2.26-1.32,4.59-2.29,7.26-1.88
		C718.76,352.56,721.95,356.1,722.71,361.21z M717.76,366.84c0-1.75-0.28-3.95-1.2-6.03c-2.05-4.65-6.12-6.05-10.62-3.72
		c-1.1,0.57-1.66,1.22-1.62,2.57c0.1,3.58,0.03,7.17,0.04,10.76c0,1.2,0.14,2.38,0.53,3.53c0.73,2.19,2.23,3.42,4.53,3.67
		c3.51,0.38,5.79-0.94,7.2-4.22C717.46,371.47,717.77,369.43,717.76,366.84z"/>
	<path fill="#115CA7" d="M275.9,356.08c-0.01,5.19,0.39,8.67,1.52,12.04c0.59,1.75,1.39,3.4,2.48,4.9
		c4.87,6.71,14.35,6.66,19.16-0.1c0.84-1.18,1.52-2.45,2.03-3.79c0.36-0.95,1.01-1.11,1.88-1.05c0.57,0.04,0.95,0.21,0.88,0.83
		c-0.28,2.46-0.57,4.92-0.87,7.37c-0.06,0.53-0.43,0.83-0.89,1.04c-5.49,2.48-11.16,4.02-17.21,2.89
		c-8.61-1.61-15.12-8.72-16.05-17.45c-0.29-2.7-0.2-5.41,0.2-8.12c1.68-11.47,13.29-19.59,25.52-16.73
		c2.26,0.53,4.45,1.29,6.57,2.23c0.68,0.3,1.23,0.59,1.33,1.49c0.23,2.14,0.57,4.27,0.84,6.41c0.07,0.57,0.09,1.18-0.73,1.21
		c-0.6,0.02-1.3,0.34-1.69-0.45c-0.17-0.36-0.3-0.74-0.46-1.11c-2.64-6.06-8.18-8.94-14.61-7.62c-3.47,0.71-5.84,2.79-7.49,5.82
		C276.68,348.86,275.89,352.75,275.9,356.08z"/>
	<path fill="#105BA7" d="M498.63,355.23c2.33-1.5,4.49-2.81,7.06-3.28c4.36-0.8,8.23,0.95,8.84,6.22c0.43,3.75,0.18,7.5,0.28,11.24
		c0.03,1.28,0,2.56,0.01,3.83c0.01,1.83,0.54,3.36,2.58,3.76c1.21,0.23,0.95,1.09,0.94,1.84c-0.01,1.01-0.8,0.8-1.4,0.8
		c-3.36,0.01-6.71,0.02-10.07,0c-0.66,0-1.54,0.24-1.55-0.92c-0.01-0.81-0.1-1.57,1.09-1.72c2-0.25,2.81-1.61,2.92-3.5
		c0.26-4.78,0.37-9.58-0.05-14.35c-0.25-2.81-1.56-3.73-4.35-3.48c-0.71,0.06-1.43,0.2-2.12,0.38c-4.05,1.09-4.53,1.72-4.53,5.9
		c0,3.03-0.01,6.07,0.01,9.1c0.01,0.88,0.12,1.75,0.16,2.62c0.08,1.84,0.96,3.06,2.81,3.31c1.15,0.16,1.13,0.86,1.13,1.7
		c-0.01,1.15-0.85,0.95-1.53,0.95c-3.59,0.01-7.19,0.01-10.78,0.01c-0.74,0-1.45,0.04-1.46-1.06c-0.02-0.94,0.26-1.35,1.26-1.6
		c2.25-0.56,2.93-1.37,2.98-3.7c0.11-4.79,0.05-9.58,0.1-14.37c0.01-0.96-0.41-1.45-1.23-1.78c-0.66-0.27-1.3-0.6-1.95-0.92
		c-0.46-0.22-0.76-0.55-0.73-1.11c0.02-0.57,0.32-0.85,0.83-1.02c2.35-0.76,4.7-1.56,7.06-2.29c0.86-0.27,1.37,0.04,1.36,1.05
		C498.27,353.54,498.14,354.28,498.63,355.23z"/>
	<path fill="#105BA7" d="M379.98,354.96c0.89,0.18,1.33-0.52,1.91-0.88c1.93-1.2,3.98-2.13,6.24-2.29c4.55-0.32,7.02,1.63,7.76,5.67
		c0.27,1.49,0.43,3,0.41,4.52c-0.03,3.59,0.01,7.19-0.01,10.78c-0.01,2.08,0.39,3.84,2.83,4.31c1.07,0.21,0.66,1.11,0.69,1.76
		c0.04,0.81-0.56,0.82-1.15,0.82c-3.51,0-7.03,0-10.54,0c-0.64,0-1.35,0.06-1.32-0.91c0.02-0.68-0.21-1.53,0.86-1.66
		c2.57-0.3,3.2-2.15,3.24-4.28c0.07-4.31,0.03-8.62,0-12.93c0-0.63-0.16-1.27-0.31-1.89c-0.26-1.1-0.92-1.83-2.05-2.09
		c-3.14-0.71-5.79,0.54-8.34,2.12c-0.44,0.27-0.45,0.81-0.44,1.3c0.03,4.55,0.04,9.1,0.1,13.65c0.02,2.11,0.7,3.79,3.12,4.1
		c1.09,0.14,0.85,0.95,0.88,1.64c0.04,0.95-0.62,0.95-1.29,0.95c-3.67,0-7.35,0-11.02,0.01c-0.7,0-1.32-0.05-1.28-0.98
		c0.03-0.68-0.16-1.32,0.88-1.65c2.73-0.85,3.17-1.43,3.22-4.25c0.08-4.55,0.02-9.1,0.07-13.65c0.01-1-0.25-1.67-1.25-2.01
		c-0.67-0.23-1.3-0.6-1.95-0.91c-0.46-0.23-0.74-0.57-0.71-1.13c0.03-0.58,0.36-0.83,0.86-0.99c2.35-0.76,4.7-1.56,7.06-2.3
		c0.89-0.28,1.34,0.11,1.33,1.09C379.75,353.57,379.62,354.31,379.98,354.96z"/>
	<path fill="#105BA7" d="M357,376.5c-1.61,0.9-2.89,1.67-4.23,2.35c-1.66,0.85-3.41,1.3-5.31,1.22c-2.76-0.12-4.67-1.46-5.79-3.94
		c-0.7-1.55-0.96-3.2-0.96-4.9c0.01-3.91,0-7.83,0-11.74c0-0.72,0.01-1.44-0.05-2.15c-0.18-2.14-0.48-2.52-2.6-3.12
		c-0.57-0.16-1.08-0.2-1.08-0.97c0-0.9,0.58-1,1.27-1.04c2.23-0.12,4.46-0.24,6.69-0.4c1.1-0.08,1.12,0.61,1.12,1.37
		c0,3.12,0,6.23,0,9.35c0,2.88-0.06,5.75,0.03,8.63c0.13,3.94,2.08,5.45,5.97,4.71c0.7-0.13,1.4-0.33,2.06-0.6
		c2.71-1.09,2.95-1.48,2.95-4.41c0-4.15,0.01-8.31,0-12.46c-0.01-3.04-0.24-3.36-3.1-4.19c-0.62-0.18-1.02-0.33-0.98-1.06
		c0.04-0.74,0.47-0.91,1.11-0.94c2.39-0.12,4.78-0.26,7.17-0.4c0.68-0.04,1.05,0.24,1.05,0.95c0,0.56,0.01,1.12,0.01,1.68
		c0,5.75,0,11.5,0,17.26c0,0.72-0.02,1.44,0.06,2.15c0.23,1.96,0.7,2.44,2.67,2.73c0.71,0.1,1.45-0.06,1.43,1.08
		c-0.02,0.95-0.5,1.2-1.32,1.31c-2.06,0.27-4.1,0.64-6.16,0.92c-1.85,0.25-1.86,0.22-1.94-1.62
		C357.06,377.77,357.04,377.3,357,376.5z"/>
	<path fill="#105BA7" d="M682.88,376.39c-1.45,0.84-2.53,1.49-3.63,2.09c-1.77,0.96-3.62,1.65-5.7,1.6
		c-3.13-0.08-5.32-1.59-6.38-4.52c-0.58-1.6-0.72-3.27-0.71-4.96c0.01-3.84,0-7.67,0-11.51c0-0.56,0.02-1.12-0.03-1.68
		c-0.16-2.11-0.54-2.63-2.55-3.18c-0.68-0.19-1.23-0.28-1.14-1.16c0.1-0.94,0.81-0.84,1.43-0.87c2.07-0.12,4.15-0.17,6.22-0.37
		c1.04-0.1,1.48,0.17,1.45,1.26c-0.05,1.84-0.01,3.68-0.01,5.52c0,3.92,0,7.83,0,11.75c0,0.88-0.01,1.75,0.24,2.61
		c0.56,1.95,1.54,2.88,3.52,3.03c2.41,0.18,4.56-0.58,6.52-1.96c0.57-0.41,0.78-0.94,0.77-1.64c-0.02-4.96,0.03-9.91-0.06-14.87
		c-0.04-2.16-0.59-2.68-2.77-3.29c-0.23-0.06-0.47-0.1-0.71-0.13c-0.62-0.09-0.74-0.5-0.71-1.03c0.03-0.46,0.25-0.77,0.71-0.8
		c2.63-0.17,5.26-0.33,7.89-0.47c0.45-0.02,0.76,0.22,0.79,0.69c0.03,0.56,0.04,1.12,0.04,1.68c0,5.76,0,11.51,0,17.27
		c0,0.8,0,1.6,0.08,2.39c0.2,1.96,0.65,2.46,2.65,2.72c0.79,0.1,1.38,0.12,1.33,1.17c-0.04,0.98-0.59,1.14-1.39,1.25
		c-1.98,0.26-3.95,0.6-5.92,0.88c-1.88,0.26-1.88,0.25-1.95-1.57C682.86,377.81,682.88,377.33,682.88,376.39z"/>
	<path fill="#145DA8" d="M154.46,375.34c0.18,2.45-0.82,3.91-3.14,4.73c-2.18,0.77-3.38,0.1-5.5-3.14c-0.77,0.15-1.3,0.8-1.94,1.21
		c-1.93,1.23-3.99,2-6.32,1.86c-4.94-0.31-7.54-4.96-5.23-9.35c0.98-1.86,2.58-3.02,4.35-3.98c2.4-1.3,4.95-2.25,7.59-2.89
		c1.41-0.34,1.82-1,1.69-2.33c-0.1-1.03,0.02-2.08-0.07-3.11c-0.15-1.69-0.85-3.1-2.5-3.79c-1.81-0.76-3.61-0.66-5.27,0.42
		c-1.15,0.74-1.32,1.94-0.71,3.67c0.27,0.76,1.23,1.53,0.18,2.32c-1.09,0.82-2.32,1.46-3.77,1.2c-0.5-0.09-0.7-0.6-0.91-1.04
		c-1.16-2.43-0.55-5.22,1.72-6.84c3.29-2.35,7.02-2.88,10.96-2.32c1.71,0.24,3.3,0.72,4.32,2.25c0.97,1.45,1.19,3.12,1.19,4.81
		c0.01,4.32,0,8.63,0,12.95c0,0.32,0,0.64,0,0.96C151.13,375.9,151.35,376.07,154.46,375.34z M145.93,366.14
		c-2.18,0.28-3.98,1.1-5.76,1.95c-0.79,0.38-1.5,0.9-2.09,1.57c-0.95,1.07-1.47,2.26-1,3.72c0.49,1.55,1.66,2.34,3.16,2.56
		c2.15,0.31,3.87-0.62,5.3-2.16c0.29-0.31,0.38-0.69,0.38-1.1C145.93,370.54,145.93,368.4,145.93,366.14z"/>
	<path fill="#145DA8" d="M239.57,371.9c0.58-0.2,0.72-0.56,0.86-0.94c1.35-3.75,2.71-7.5,4.06-11.26c0.16-0.45,0.27-0.92,0.34-1.39
		c0.26-1.69-0.06-2.59-1.64-3.31c-1.06-0.49-1.56-1.08-1.27-2.15c0.31-1.12,1.33-0.62,2.04-0.64c2.24-0.06,4.47-0.03,6.71-0.02
		c0.54,0,1.22-0.11,1.27,0.7c0.05,0.68,0.3,1.5-0.63,1.85c-2.62,0.97-3.59,3.25-4.49,5.59c-2.62,6.77-5.21,13.55-7.84,20.32
		c-1.01,2.61-2.07,5.2-3.69,7.51c-2.02,2.88-5.04,3.93-7.92,2.82c-1.48-0.57-2.34-1.66-2.36-2.99c-0.02-1.14,0.47-2.01,1.45-2.57
		c0.88-0.5,1.7-0.18,2.47,0.33c0.07,0.04,0.13,0.09,0.2,0.14c2.98,1.99,4.28,1.65,5.95-1.55c0.18-0.35,0.32-0.73,0.5-1.08
		c1.22-2.41,1.27-4.66,0.03-7.23c-2.64-5.46-4.91-11.09-7.35-16.64c-0.8-1.83-1.57-3.69-3.52-4.68c-0.85-0.43-0.63-1.24-0.51-1.91
		c0.14-0.74,0.84-0.6,1.37-0.6c3.04-0.01,6.07-0.01,9.11,0c0.64,0,1.34-0.07,1.35,0.9c0.01,0.72,0.06,1.26-0.94,1.57
		c-1.93,0.59-2.2,1.24-1.62,3.23c0.38,1.29,0.91,2.55,1.46,3.79C236.48,365.11,238.04,368.51,239.57,371.9z"/>
	<path fill="#125CA7" d="M333.43,366.02c0.12,1.67-0.18,3.24-0.62,4.78c-1.7,5.93-6.55,9.5-12.63,9.34
		c-5.75-0.15-10.64-4.16-12.04-9.9c-0.71-2.93-0.7-5.86,0.11-8.76c1.35-4.86,5.23-9.65,12.45-9.67c5.74-0.02,10.79,4.19,12.22,10.01
		C333.27,363.2,333.58,364.61,333.43,366.02z M327.66,368.52c0-2.91-0.29-5.28-0.96-7.59c-0.56-1.93-1.39-3.75-2.86-5.18
		c-2.8-2.72-7-2.15-8.97,1.22c-0.53,0.9-0.84,1.88-1.08,2.9c-0.44,1.89-0.49,3.8-0.34,5.71c0.27,3.44,0.86,6.8,2.94,9.71
		c1.36,1.89,3.13,2.93,5.51,2.66c2.39-0.27,3.91-1.68,4.77-3.84C327.46,372.16,327.69,370.1,327.66,368.52z"/>
	<path fill="#115CA7" d="M633.41,366.34c-0.03-3.21,0.6-5.98,2.15-8.5c4.91-7.97,16.19-8.16,21.2-0.25
		c3.3,5.21,3.35,10.76,0.52,16.18c-2.51,4.79-7.27,6.95-12.93,6.26c-4.71-0.58-9.01-4.49-10.36-9.46
		C633.59,369.09,633.29,367.6,633.41,366.34z M639.22,364.02c0,0.64-0.05,1.28,0.01,1.91c0.29,3.2,0.87,6.32,2.71,9.06
		c1.33,1.99,3.08,3.2,5.6,2.97c2.83-0.25,4.82-2.33,5.48-5.78c0.74-3.83,0.4-7.62-0.61-11.36c-0.42-1.54-1.11-2.99-2.11-4.26
		c-3.05-3.89-8.27-3.2-10.16,1.37C639.34,359.87,639.12,361.93,639.22,364.02z"/>
	<path fill="#125CA7" d="M448.41,372.37c1.48,1.35,1.48,1.35,0.37,2.79c-3.24,4.19-7.43,6.01-12.64,4.72
		c-4.94-1.22-7.69-4.67-8.69-9.52c-1.07-5.15-0.4-10.02,2.97-14.28c3.04-3.85,7.75-5.31,12.21-3.83c4.11,1.36,7.09,5.51,7.34,10.29
		c-0.53,0.46-1.2,0.24-1.8,0.25c-4.32,0.02-8.63,0-12.95,0.01c-3.18,0.01-3.36,0.26-2.95,3.5c0.24,1.87,0.91,3.55,1.96,5.09
		c2.7,3.92,6.61,5,10.9,2.93C446.27,373.77,447.32,373.02,448.41,372.37z M443.68,360.18c-0.38-3.79-2.58-6.07-5.67-6.01
		c-3.01,0.06-5.45,2.72-5.51,6.01C436.22,360.18,439.94,360.18,443.68,360.18z"/>
	<path fill="#0F5AA6" d="M462.51,356.2c0,5.12-0.01,10.23,0.01,15.35c0,0.88,0.03,1.76,0.14,2.63c0.2,1.63,1.18,2.63,2.79,2.83
		c1.21,0.16,1.05,0.97,1.07,1.75c0.03,0.99-0.7,0.89-1.33,0.89c-3.68,0-7.36,0-11.04,0c-0.68,0-1.33,0-1.28-0.95
		c0.04-0.67-0.23-1.51,0.89-1.62c2.54-0.25,3.19-2.07,3.39-4.21c0.06-0.63,0.04-1.28,0.04-1.92c0-8.39-0.07-16.79,0.05-25.18
		c0.03-1.92-0.52-3.03-2.33-3.54c-0.23-0.06-0.44-0.2-0.65-0.3c-0.52-0.24-0.97-0.52-0.97-1.22c0-0.86,0.59-1.01,1.23-1.21
		c2.06-0.64,4.1-1.34,6.17-1.94c1.63-0.48,1.82-0.34,1.83,1.36C462.53,344.69,462.51,350.45,462.51,356.2z"/>
	<path fill="#125CA7" d="M404.87,373.55c0-0.72,0-1.44,0-2.16c0-0.56-0.07-1.19,0.76-1.21c0.71-0.02,1.51-0.18,1.67,0.86
		c0.18,1.11,0.52,2.18,1,3.19c1.25,2.62,3.45,3.77,6.26,3.31c3.2-0.52,4.49-3.75,2.52-6.34c-1.1-1.44-2.62-2.32-4.16-3.17
		c-1.89-1.05-3.81-2.04-5.49-3.4c-1.74-1.41-2.98-3.1-3.1-5.45c-0.15-2.95,1.29-5.3,4.21-6.62c4.07-1.83,7.96-0.89,11.77,0.91
		c0.51,0.24,0.69,0.63,0.69,1.14c0,1.44,0,2.88,0.01,4.32c0,0.55-0.15,0.92-0.77,0.97c-0.55,0.04-0.91-0.15-1.11-0.68
		c-0.24-0.67-0.47-1.37-0.8-2c-1.36-2.57-3.75-3.73-6.6-3.22c-2.38,0.42-3.39,2.67-2.08,4.71c0.7,1.09,1.68,1.93,2.78,2.6
		c1.57,0.95,3.18,1.85,4.75,2.79c1.17,0.7,2.28,1.47,3.26,2.42c3.5,3.4,3.23,8.51-0.64,11.49c-3.43,2.64-7.18,2.79-11.11,1.3
		c-0.52-0.2-1-0.5-1.52-0.71c-1.77-0.7-2.71-1.87-2.32-3.87C404.94,374.36,404.87,373.95,404.87,373.55z"/>
	<path fill="#145DA8" d="M171.99,371.83c1.67-4.46,3.5-8.87,4.87-13.44c0.65-2.19,0.15-3.07-2.03-3.8
		c-0.82-0.28-1.22-0.56-1.15-1.45c0.08-1.17,0.94-0.88,1.6-0.88c2.4-0.03,4.79-0.02,7.19-0.01c0.46,0,1.05-0.09,1.2,0.51
		c0.15,0.6,0.3,1.35-0.39,1.72c-2.87,1.55-3.75,4.44-4.84,7.16c-2.25,5.63-4.44,11.28-6.65,16.92c-0.26,0.66-0.38,1.35-1.36,1.39
		c-1.02,0.04-1.33-0.5-1.65-1.33c-1.66-4.31-3.38-8.61-5.1-12.9c-1.09-2.74-2.18-5.49-3.32-8.21c-0.58-1.38-1.05-2.88-2.92-3.14
		c-0.76-0.1-0.59-0.83-0.57-1.37c0.02-0.61,0.42-0.77,0.97-0.76c3.43,0.01,6.87,0.01,10.3,0c0.61,0,0.88,0.3,0.89,0.86
		c0.01,0.54,0.13,1.19-0.66,1.32c-0.89,0.14-1.79,0.3-2.13,1.28c-0.32,0.95-0.08,1.89,0.26,2.8c1.66,4.47,3.31,8.94,4.96,13.41
		C171.63,371.88,171.81,371.86,171.99,371.83z"/>
	<path fill="#105BA7" d="M619.66,356.35c1.91-1.5,3.01-3.01,4.6-3.92c1.95-1.11,3.69-0.96,5.28,0.49c1.82,1.66,1.54,4.63-0.54,5.98
		c-0.55,0.36-1.06,0.39-1.53-0.04c-0.53-0.49-0.98-1.05-1.49-1.56c-1.23-1.25-2.24-1.4-3.57-0.34c-1.67,1.33-2.9,2.87-2.78,5.25
		c0.18,3.59-0.16,7.19,0.18,10.78c0.29,3.14,0.95,3.84,4.09,4.15c0.91,0.09,1.26,0.34,1.28,1.26c0.02,0.95-0.36,1.26-1.27,1.25
		c-4.16-0.03-8.32-0.01-12.47-0.01c-0.61,0-1.16-0.08-1.11-0.87c0.04-0.65-0.31-1.56,0.82-1.65c2.46-0.21,3.11-1.91,3.33-3.97
		c0.07-0.71,0.09-1.43,0.09-2.15c0.01-3.36-0.15-6.73,0.06-10.07c0.14-2.31-0.38-3.87-2.77-4.45c-0.3-0.07-0.6-0.23-0.86-0.42
		c-0.81-0.6-0.81-1.54,0.1-1.87c2.48-0.89,5-1.67,7.52-2.44c0.69-0.21,1.04,0.22,1.04,0.91
		C619.66,353.7,619.66,354.73,619.66,356.35z"/>
	<path fill="#0F5AA6" d="M117.69,355.89c1.15-0.08,1.42-0.86,1.93-1.31c1.08-0.94,2.1-1.97,3.46-2.53c1.86-0.77,4.15-0.03,5.23,1.69
		c0.88,1.41,0.51,3.49-0.85,4.81c-0.75,0.73-1.48,0.9-2.25,0.05c-0.37-0.41-0.73-0.84-1.12-1.25c-1.26-1.32-2.35-1.46-3.76-0.3
		c-1.57,1.29-2.76,2.78-2.66,5.07c0.14,3.11,0.03,6.22,0.04,9.34c0,0.64,0.01,1.28,0.1,1.91c0.38,2.73,1.2,3.56,4.01,3.78
		c0.98,0.08,1.47,0.27,1.42,1.35c-0.03,0.8-0.31,1.16-1.13,1.16c-4.23-0.02-8.46-0.01-12.69-0.01c-0.67,0-1.08-0.24-1.02-0.97
		c0.05-0.59-0.25-1.43,0.7-1.52c2.89-0.27,3.39-2.36,3.44-4.62c0.1-4.55,0.04-9.1,0.07-13.65c0-0.82-0.29-1.34-1.08-1.65
		c-0.81-0.32-1.63-0.67-2.37-1.13c-0.93-0.57-0.87-1.61,0.15-1.98c2.32-0.84,4.68-1.58,7.04-2.33c0.87-0.27,1.39,0.03,1.36,1.03
		C117.67,353.85,117.69,354.86,117.69,355.89z"/>
	<path fill="#105BA7" d="M218.19,376.63c0.43-0.04,1.23-0.13,2.02-0.21c0.51-0.05,1.19-0.47,1.38,0.34
		c0.16,0.66,0.39,1.54-0.46,1.91c-2.88,1.24-5.81,2.27-9.02,1.32c-1.24-0.36-2.02-1.18-2.47-2.39c-0.48-1.31-0.52-2.65-0.52-4.01
		c0-5.59,0.01-11.17-0.01-16.76c-0.01-2.04-0.03-2-1.9-2.14c-0.72-0.05-1.81,0.48-2.08-0.56c-0.32-1.21,0.99-1.24,1.67-1.65
		c1.79-1.08,3.36-2.42,4.83-3.9c0.34-0.34,0.62-0.75,1-1.03c0.74-0.55,1.37-0.26,1.44,0.65c0.06,0.87,0.07,1.76,0.01,2.63
		c-0.07,1.02,0.31,1.45,1.36,1.41c1.51-0.05,3.03,0.02,4.55-0.02c0.97-0.02,1.2,0.47,1.2,1.33c0,0.82-0.33,1.15-1.13,1.14
		c-1.52-0.02-3.03,0.03-4.55-0.01c-0.99-0.03-1.44,0.32-1.44,1.38c0.04,5.82-0.02,11.65,0.08,17.47
		C214.19,376.2,214.98,376.74,218.19,376.63z"/>
	<path fill="#105BA7" d="M200.8,379.66c-4.12,0-8.27,0-12.41,0c-0.63,0-1.12-0.16-1.09-0.92c0.02-0.69-0.16-1.34,0.87-1.67
		c3-0.96,3.35-1.45,3.4-4.6c0.07-4.39-0.02-8.79,0.06-13.18c0.02-1.25-0.52-1.81-1.54-2.34c-0.91-0.46-2.48-0.44-2.33-1.96
		c0.14-1.34,1.59-1.09,2.48-1.44c1.63-0.64,3.32-1.16,5-1.65c1.44-0.42,1.68-0.24,1.69,1.29c0.02,5.83,0,11.66,0.02,17.49
		c0,1.11,0.12,2.23,0.2,3.34c0.11,1.54,0.94,2.46,2.4,2.93C201.1,377.46,201.09,377.5,200.8,379.66z"/>
	<path fill="#0F5AA6" d="M480.44,362.92c0,2.71-0.01,5.42,0.01,8.14c0.01,0.87,0.13,1.75,0.18,2.62c0.1,1.82,0.93,3.08,2.8,3.32
		c1.32,0.17,1.23,1,1.16,1.89c-0.07,0.99-0.87,0.76-1.45,0.76c-3.59,0.02-7.18,0.02-10.77,0.01c-0.7,0-1.49,0.15-1.52-0.98
		c-0.02-0.88,0.12-1.4,1.18-1.67c2.33-0.59,3.02-1.49,3.05-3.9c0.07-4.71,0.01-9.41,0.04-14.12c0.01-0.91-0.25-1.5-1.15-1.83
		c-0.74-0.27-1.48-0.62-2.14-1.06c-0.88-0.58-0.78-1.65,0.22-2c2.33-0.83,4.69-1.57,7.05-2.29c1.13-0.35,1.35,0.34,1.34,1.3
		C480.43,356.38,480.44,359.65,480.44,362.92z"/>
	<path fill="#FEC141" d="M379.36,417.47c-4.45,3.79-9.05,3.93-12.27,0.5c-2.89-3.08-2.81-8.79,0.12-11.84
		c2.41-2.51,8.17-3.67,12.05,0.45c0.71-0.32,0.39-0.96,0.4-1.45c0.04-2-0.01-3.99,0.03-5.99c0.01-0.64-0.35-1.69,0.72-1.72
		c1.28-0.03,0.83,1.13,0.85,1.82c0.05,2.31,0.02,4.63,0.02,6.95c0,3.83,0,7.66,0,11.5c0,0.56,0,1.12-0.04,1.67
		c-0.03,0.44-0.22,0.77-0.71,0.78c-0.47,0.02-0.72-0.24-0.81-0.69C379.59,418.85,379.85,418.19,379.36,417.47z M379.64,412.19
		c0.04-3.99-2.58-6.77-6.43-6.83c-3.98-0.06-6.57,2.5-6.64,6.56c-0.07,4.25,2.43,6.91,6.5,6.91
		C377,418.84,379.61,416.2,379.64,412.19z"/>
	<path fill="#FEC141" d="M241.61,413.12c0.48,3.42,2.59,5.46,5.81,5.69c1.88,0.13,3.65-0.26,5.24-1.34c0.2-0.13,0.39-0.29,0.56-0.44
		c0.43-0.39,0.88-0.41,1.23,0.06c0.33,0.43-0.03,0.75-0.32,1.01c-3.99,3.66-11.91,3.22-13.95-3.25c-1.06-3.35,0.02-7.06,2.59-9.13
		c2.74-2.21,6.52-2.5,9.67-0.73c2.58,1.46,3.44,3.85,3.54,6.63c0.03,0.88-0.36,1.32-1.29,1.31c-1.52-0.03-3.04-0.01-4.56,0
		c-2.64,0.01-5.27,0.02-7.91,0.03C242.08,412.96,241.92,413.04,241.61,413.12z M248.16,405.34c-3.06-0.04-5.38,1.58-6.35,4.43
		c-0.49,1.45-0.36,1.72,1.15,1.74c3.26,0.04,6.51,0.03,9.77,0c1.63-0.01,1.91-0.45,1.46-2.04
		C253.47,406.95,251.16,405.37,248.16,405.34z"/>
	<path fill="#FEC346" d="M477.74,412.95c-2,0-3.99,0.01-5.99,0c-1.02-0.01-1.19,0.52-0.99,1.4c0.5,2.19,2.62,4.07,5.14,4.42
		c2.04,0.28,3.98-0.09,5.71-1.26c0.2-0.13,0.38-0.29,0.56-0.45c0.41-0.38,0.85-0.51,1.23-0.03c0.39,0.49,0.07,0.85-0.31,1.21
		c-2.47,2.35-7.27,2.88-10.31,1.11c-3.02-1.76-4.58-5.55-3.71-9.12c0.77-3.13,2.68-5.32,5.81-6.06c3-0.71,5.87-0.27,8.2,2.07
		c1.38,1.39,1.84,3.15,1.98,5.01c0.11,1.45-0.11,1.67-1.57,1.71c-1.92,0.04-3.83,0.01-5.75,0.01
		C477.74,412.94,477.74,412.95,477.74,412.95z M477.23,405.34c-3.1-0.04-5.77,1.91-6.43,4.67c-0.23,0.97-0.03,1.52,1.12,1.51
		c3.34-0.03,6.67,0.02,10.01-0.02c1.43-0.02,1.6-0.32,1.32-1.77C482.75,407.13,480.35,405.38,477.23,405.34z"/>
	<path fill="#FEC346" d="M191.4,412.94c-1.91,0-3.83-0.03-5.74,0.01c-1.49,0.03-1.82,0.53-1.24,1.93c1.01,2.45,2.94,3.73,5.54,3.92
		c2.04,0.15,3.97-0.32,5.61-1.64c0.47-0.38,0.93-0.76,1.39-0.1c0.37,0.54-0.16,0.87-0.48,1.19c-2.37,2.36-7.18,2.83-10.28,1.03
		c-2.99-1.74-4.49-5.55-3.61-9.14c0.92-3.76,3.93-6.19,7.75-6.25c4.68-0.08,7.74,2.51,8.19,6.92c0.19,1.84-0.01,2.09-1.85,2.12
		C194.91,412.96,193.15,412.94,191.4,412.94z M190.4,411.51C190.4,411.51,190.4,411.51,190.4,411.51c1.67,0,3.34,0.04,5-0.01
		c1.42-0.04,1.63-0.35,1.34-1.76c-0.57-2.78-3.15-4.53-6.5-4.4c-2.91,0.11-5.63,2.35-6.01,4.88c-0.14,0.97,0.24,1.3,1.15,1.29
		C187.06,411.49,188.73,411.51,190.4,411.51z"/>
	<path fill="#FDC03E" d="M446.01,406.6c0.41-0.56,0.12-1.22,0.25-1.82c0.09-0.46,0.36-0.7,0.83-0.65c0.35,0.04,0.58,0.26,0.61,0.61
		c0.03,0.4,0.05,0.8,0.05,1.19c0,4.15,0,8.3,0,12.44c0,0.4-0.01,0.8-0.06,1.19c-0.05,0.35-0.29,0.56-0.65,0.56
		c-0.34,0-0.6-0.12-0.71-0.49c-0.2-0.66,0.12-1.4-0.29-2.05c-5.31,3.65-9.29,3.66-12.53,0.05c-2.71-3.02-2.74-7.83-0.07-10.99
		C436.36,403.18,440.4,403.15,446.01,406.6z M446.3,412.15c0-4.02-2.79-6.79-6.79-6.73c-3.81,0.05-6.48,2.9-6.43,6.85
		c0.05,3.92,2.79,6.62,6.66,6.58C443.68,418.79,446.3,416.12,446.3,412.15z"/>
	<path fill="#FEC346" d="M124.21,418.12c-1.02,0.78-1.78,1.35-2.66,1.72c-4.57,1.96-9.52-0.7-9.98-5.57
		c-0.28-3.01-0.1-6.05-0.11-9.08c0-0.3,0.1-0.64,0.27-0.88c0.1-0.15,0.42-0.2,0.64-0.2c0.46,0.01,0.73,0.31,0.74,0.76
		c0.03,1.43,0.03,2.87,0.04,4.3c0.01,1.52-0.04,3.03,0.02,4.55c0.12,3.15,2.02,5.01,5.14,5.11c3.35,0.11,5.79-1.74,6.02-4.84
		c0.19-2.54,0.06-5.1,0.08-7.65c0-0.56,0.01-1.12,0.07-1.67c0.04-0.35,0.32-0.54,0.66-0.57c0.44-0.04,0.81,0.11,0.89,0.58
		c0.07,0.39,0.07,0.79,0.07,1.19c0,4.15,0,8.29,0,12.44c0,0.4-0.01,0.8-0.05,1.19c-0.04,0.35-0.25,0.59-0.6,0.64
		c-0.44,0.07-0.78-0.08-0.9-0.55C124.46,419.21,124.38,418.83,124.21,418.12z"/>
	<path fill="#FEC141" d="M538.75,412.22c-0.01,4.67-3.46,8.14-8.15,8.2c-4.72,0.06-8.24-3.54-8.2-8.38
		c0.05-4.77,3.42-8.15,8.14-8.17C535.32,403.84,538.76,407.34,538.75,412.22z M530.49,418.82c3.91,0.05,6.6-2.62,6.63-6.58
		c0.03-4.04-2.55-6.84-6.35-6.91c-3.95-0.07-6.76,2.72-6.78,6.75C523.95,416.08,526.55,418.77,530.49,418.82z"/>
	<path fill="#FEC141" d="M309.96,412.17c-0.01-4.95,3.32-8.33,8.19-8.3c4.67,0.03,8.06,3.46,8.12,8.21c0.06,4.74-3.5,8.33-8.28,8.34
		C313.35,420.44,309.97,416.97,309.96,412.17z M324.6,412.1c-0.02-3.99-2.66-6.74-6.49-6.76c-3.92-0.02-6.66,2.81-6.67,6.89
		c0,3.88,2.75,6.6,6.67,6.59C322.02,418.81,324.62,416.12,324.6,412.1z"/>
	<path fill="#FEC346" d="M334.68,405.78c0.74-0.09,1.19-0.72,1.8-1.07c3.85-2.19,10.41-0.61,10.74,5.7
		c0.14,2.79,0.07,5.59,0.08,8.38c0,0.62,0.07,1.41-0.89,1.35c-0.94-0.05-0.79-0.84-0.8-1.45c-0.02-2.56,0.04-5.11-0.02-7.67
		c-0.1-4.6-4-7.02-8.18-5.1c-2.03,0.93-2.97,2.64-3.06,4.77c-0.11,2.47-0.03,4.95-0.1,7.42c-0.02,0.71,0.42,1.92-0.69,1.97
		c-1.36,0.06-0.88-1.24-0.89-2c-0.04-3.99-0.02-7.98-0.02-11.98c0-0.4,0-0.8,0.02-1.2c0.02-0.44,0.22-0.76,0.69-0.81
		c0.46-0.05,0.75,0.17,0.86,0.62C334.32,405.09,334.25,405.52,334.68,405.78z"/>
	<path fill="#FEC141" d="M671.26,403.87c4.73,0.03,8.24,3.67,8.14,8.46c-0.09,4.61-3.68,8.1-8.31,8.09
		c-4.62-0.01-8.06-3.52-8.09-8.27C662.97,407.31,666.43,403.84,671.26,403.87z M677.74,412.11c-0.02-3.98-2.69-6.76-6.5-6.77
		c-3.94-0.01-6.7,2.84-6.67,6.87c0.03,3.93,2.74,6.61,6.66,6.61C675.09,418.82,677.76,416.07,677.74,412.11z"/>
	<path fill="#FEC141" d="M609.43,412.21c-0.01,4.77-3.37,8.2-8.08,8.23c-4.7,0.03-8.26-3.6-8.23-8.38c0.03-4.7,3.47-8.16,8.13-8.18
		C606.05,403.84,609.44,407.29,609.43,412.21z M601.18,418.82c3.93,0.04,6.66-2.6,6.76-6.52c0.09-3.93-2.79-6.95-6.63-6.96
		c-3.86,0-6.7,2.96-6.66,6.95C594.68,416,597.46,418.78,601.18,418.82z"/>
	<path fill="#FEC141" d="M88.8,412.13c0-4.83,3.54-8.41,8.25-8.34c4.58,0.07,8.03,3.66,8.03,8.34c-0.01,4.87-3.41,8.27-8.27,8.29
		C92.18,420.43,88.8,416.94,88.8,412.13z M97.03,405.34c-3.79-0.04-6.64,2.76-6.74,6.61c-0.1,3.93,2.57,6.78,6.43,6.87
		c3.94,0.09,6.76-2.55,6.85-6.43C103.66,408.36,100.89,405.38,97.03,405.34z"/>
	<path fill="#FEC346" d="M68.49,397.55c1.15-0.56,1.74,0.1,2.31,0.98c1.76,2.76,3.54,5.51,5.33,8.25c0.47,0.72,0.82,1.54,1.56,2.05
		c0.8-0.15,1-0.83,1.33-1.33c1.93-2.94,3.84-5.89,5.75-8.84c0.54-0.83,1.03-1.67,2.26-1.17c0.32,0.65-0.21,1.04-0.48,1.47
		c-2.21,3.42-4.41,6.86-6.7,10.22c-0.85,1.25-1.26,2.51-1.17,4.02c0.09,1.59,0.02,3.2,0.02,4.79c0,0.48-0.01,0.96-0.05,1.43
		c-0.04,0.46-0.34,0.7-0.79,0.74c-0.59,0.04-0.91-0.29-0.91-0.85c-0.03-2.08-0.1-4.16-0.01-6.23c0.06-1.43-0.33-2.62-1.13-3.8
		c-2.28-3.37-4.48-6.81-6.7-10.22C68.81,398.61,68.36,398.2,68.49,397.55z"/>
	<path fill="#FDC03E" d="M557.95,417.75c-2.87,2.93-5.84,3.3-9.08,1.88c-2.47-1.08-3.55-3.19-3.68-5.72
		c-0.15-2.86-0.04-5.74-0.04-8.61c0-0.57,0-1.2,0.81-1.17c0.78,0.03,0.79,0.67,0.79,1.23c0.02,2.71-0.01,5.42,0.03,8.13
		c0.02,2.03,0.62,3.81,2.61,4.74c3.53,1.65,8.67,0.2,8.7-5.11c0.01-2.39,0-4.78,0.01-7.18c0-0.47,0.02-0.96,0.12-1.42
		c0.04-0.17,0.32-0.36,0.53-0.4c0.31-0.07,0.69,0.02,0.78,0.37c0.12,0.45,0.18,0.93,0.18,1.4c0.01,4.15,0.01,8.29,0.01,12.44
		c0,0.24,0.01,0.48-0.02,0.72c-0.06,0.48-0.1,1-0.73,1.06c-0.62,0.06-0.81-0.36-0.86-0.89
		C558.08,418.85,558.03,418.47,557.95,417.75z"/>
	<path fill="#FDC03E" d="M687.9,405.89c1.62-1.24,3.41-2.15,5.63-2.03c3.7,0.2,6.21,2.28,6.67,5.93c0.39,3.09,0.1,6.22,0.14,9.33
		c0.01,0.49-0.1,0.99-0.73,1.02c-0.77,0.04-0.91-0.5-0.91-1.11c-0.01-2.63-0.14-5.28,0.02-7.9c0.21-3.41-1.95-5.67-5.24-5.78
		c-3.51-0.12-5.88,2.03-6.04,5.65c-0.1,2.23-0.02,4.47-0.03,6.7c0,0.56-0.01,1.12-0.04,1.67c-0.02,0.45-0.25,0.75-0.73,0.77
		c-0.46,0.02-0.77-0.21-0.84-0.67c-0.06-0.39-0.06-0.79-0.06-1.19c0-4.15,0-8.3,0-12.45c0-0.32,0-0.64,0.02-0.96
		c0.03-0.46,0.26-0.73,0.74-0.76c0.36-0.02,0.6,0.16,0.74,0.48C687.42,405.01,687.27,405.58,687.9,405.89z"/>
	<path fill="#FEC141" d="M713.37,403.91c1.62-0.11,3.15,0.28,4.55,1.13c0.44,0.27,1.13,0.55,0.83,1.23
		c-0.35,0.77-0.93,0.32-1.39,0.03c-1.57-1.01-3.32-1.01-5.08-0.94c-0.82,0.03-1.56,0.29-2.29,0.64c-0.85,0.41-1.41,1.05-1.47,2.02
		c-0.07,1.08,0.52,1.81,1.41,2.31c0.92,0.51,1.96,0.63,2.98,0.84c1.48,0.3,3,0.43,4.41,1.03c1.51,0.63,2.58,1.64,2.62,3.37
		c0.04,1.83-0.72,3.28-2.46,4.01c-3.32,1.39-6.54,1.18-9.57-0.81c-0.45-0.3-0.83-0.74-1.17-1.17c-0.22-0.27-0.11-0.62,0.2-0.82
		c0.19-0.12,0.47-0.29,0.64-0.23c0.29,0.09,0.55,0.32,0.77,0.54c1.92,1.84,4.29,1.93,6.72,1.68c0.88-0.09,1.72-0.4,2.4-0.99
		c1.43-1.24,1.18-3.25-0.51-4.16c-1.22-0.66-2.6-0.76-3.92-1c-1.26-0.23-2.51-0.46-3.7-0.94c-1.36-0.55-2.24-1.54-2.39-3.03
		c-0.16-1.58,0.55-2.79,1.84-3.64C710.16,404.09,711.71,403.81,713.37,403.91z"/>
	<path fill="#FEC346" d="M227.95,420.28c-3.74-0.06-6.7-2.23-7.7-5.66c-1.01-3.46,0.22-7.29,2.95-9.17
		c2.98-2.06,7.08-2.02,9.85,0.12c0.34,0.26,0.98,0.48,0.62,1.08c-0.37,0.62-0.9,0.46-1.43,0.09c-2.21-1.55-4.58-1.74-7.03-0.7
		c-3.26,1.39-4.67,5.38-3.21,8.94c1.29,3.12,5.12,4.72,8.4,3.46c0.67-0.26,1.28-0.64,1.92-0.96c0.48-0.24,0.94-0.27,1.22,0.26
		c0.23,0.45-0.15,0.72-0.45,0.98C231.92,419.72,229.97,420.31,227.95,420.28z"/>
	<path fill="#FEC141" d="M404.54,420.28c-3.61-0.08-6.59-2.26-7.57-5.55c-1.01-3.39,0.1-7.22,2.64-9.11
		c2.92-2.18,7.18-2.22,10.11-0.1c0.38,0.27,0.93,0.54,0.57,1.12c-0.41,0.67-0.94,0.36-1.43,0.02c-0.73-0.52-1.53-0.84-2.4-1.04
		c-3.03-0.69-6.07,0.51-7.47,2.99c-1.33,2.37-0.99,6.23,0.72,8.14c1.91,2.12,5.47,2.75,8.18,1.41c0.5-0.25,0.94-0.6,1.43-0.87
		c0.43-0.24,0.77-0.05,1,0.33c0.19,0.32,0.02,0.58-0.22,0.83C409.04,419.53,406.7,420.32,404.54,420.28z"/>
	<path fill="#FEC346" d="M287.94,411.25c0-1.44-0.04-2.87,0.01-4.31c0.04-1.06-0.21-1.71-1.44-1.58c-0.39,0.04-0.8-0.01-1.19-0.04
		c-0.35-0.02-0.61-0.19-0.65-0.56c-0.03-0.37,0.2-0.56,0.54-0.67c0.87-0.27,2.14,0.45,2.59-0.61c0.35-0.82,0.12-1.88,0.15-2.84
		c0.01-0.24,0.01-0.48,0.06-0.71c0.07-0.35,0.34-0.53,0.67-0.57c0.48-0.07,0.79,0.2,0.82,0.64c0.07,0.87,0.1,1.75,0.08,2.63
		c-0.02,1.02,0.46,1.43,1.45,1.41c0.96-0.03,1.92-0.01,2.87,0.01c0.48,0.01,1.03,0.04,0.98,0.72c-0.04,0.5-0.48,0.58-0.89,0.58
		c-1.04,0.02-2.08,0.04-3.11,0.02c-0.91-0.02-1.3,0.4-1.29,1.3c0.02,3.19-0.06,6.39,0.04,9.57c0.06,1.98,0.96,2.69,2.92,2.65
		c0.24,0,0.48-0.08,0.71-0.05c0.64,0.08,1.58-0.85,1.85,0.2c0.31,1.17-0.95,1.05-1.62,1.21c-3.13,0.73-5.35-0.95-5.53-4.21
		c-0.09-1.59-0.02-3.19-0.02-4.79C287.95,411.25,287.95,411.25,287.94,411.25z"/>
	<path fill="#FEC346" d="M641.07,411.24c0-1.44-0.04-2.88,0.01-4.31c0.04-1.08-0.25-1.7-1.46-1.57c-0.39,0.04-0.8-0.01-1.19-0.04
		c-0.35-0.02-0.61-0.19-0.65-0.56c-0.04-0.37,0.19-0.58,0.53-0.67c0.08-0.02,0.16-0.02,0.24-0.03c0.81-0.2,1.94,0.43,2.39-0.55
		c0.31-0.67,0.11-1.57,0.14-2.36c0.02-0.4,0.02-0.8,0.07-1.19c0.04-0.37,0.34-0.54,0.66-0.58c0.51-0.06,0.69,0.28,0.73,0.72
		c0.03,0.32,0.02,0.64,0.02,0.96c0.01,3.29-0.36,2.96,3.17,2.98c0.56,0,1.12,0.01,1.67,0.05c0.36,0.03,0.58,0.29,0.57,0.63
		c-0.01,0.34-0.23,0.6-0.61,0.61c-0.96,0.02-1.91,0.02-2.87,0.05c-1.87,0.05-1.9,0.06-1.92,1.86c-0.03,2.71-0.06,5.43,0.01,8.14
		c0.08,2.98,1.15,3.82,4.1,3.4c0.24-0.03,0.46-0.14,0.69-0.18c0.33-0.06,0.64-0.04,0.8,0.32c0.2,0.45-0.03,0.74-0.41,0.97
		c-2.75,1.68-6.3-0.08-6.61-3.37c-0.16-1.74-0.03-3.51-0.03-5.26C641.1,411.24,641.09,411.24,641.07,411.24z"/>
	<path fill="#FEC346" d="M460.78,420.43c-2.8-0.14-4.3-1.63-4.41-4.35c-0.1-2.55-0.03-5.11-0.04-7.66c0-0.56-0.04-1.12,0-1.68
		c0.08-1.04-0.39-1.45-1.41-1.38c-0.47,0.03-0.96-0.01-1.43-0.07c-0.21-0.03-0.43-0.18-0.46-0.47c-0.04-0.38,0.16-0.58,0.47-0.71
		c0.07-0.03,0.16-0.02,0.24-0.04c0.81-0.21,1.96,0.42,2.4-0.52c0.34-0.73,0.14-1.72,0.18-2.59c0.01-0.32,0.01-0.64,0.06-0.95
		c0.07-0.47,0.41-0.64,0.86-0.62c0.42,0.02,0.51,0.35,0.53,0.67c0.04,0.64,0.03,1.28,0.04,1.91c0.04,2.04,0.04,2.04,2.16,2.07
		c0.8,0.01,1.6,0.01,2.4,0.01c0.44,0,0.83,0.16,0.85,0.63c0.02,0.47-0.35,0.67-0.8,0.68c-1.04,0.01-2.08,0.06-3.11,0.01
		c-1.16-0.06-1.53,0.49-1.51,1.58c0.04,2.87-0.06,5.75,0.04,8.62c0.1,2.81,1.2,3.61,4.04,3.22c0.56-0.08,1.37-0.69,1.58,0.3
		c0.17,0.82-0.71,0.93-1.3,1.1C461.64,420.34,461.08,420.38,460.78,420.43z"/>
	<path fill="#FEC346" d="M418.91,411.44c0-1.52-0.05-3.04,0.02-4.55c0.05-1.13-0.35-1.64-1.51-1.53c-0.39,0.04-0.8-0.01-1.19-0.04
		c-0.35-0.03-0.6-0.23-0.61-0.59c-0.01-0.36,0.23-0.54,0.57-0.64c0.87-0.25,2.13,0.46,2.59-0.61c0.35-0.82,0.12-1.89,0.14-2.84
		c0-0.16,0-0.32,0.02-0.48c0.04-0.45,0.3-0.76,0.74-0.79c0.5-0.03,0.69,0.34,0.7,0.77c0.03,0.88,0.05,1.76,0.02,2.63
		c-0.03,0.92,0.39,1.3,1.29,1.27c0.8-0.03,1.6-0.06,2.39,0.02c0.62,0.06,1.73-0.38,1.67,0.7c-0.06,1.02-1.14,0.53-1.78,0.6
		c-0.79,0.08-1.59,0.04-2.39,0.03c-0.79,0-1.17,0.37-1.16,1.16c0.01,3.19-0.09,6.39,0.06,9.57c0.1,2.17,1.2,2.94,3.34,2.75
		c0.47-0.04,0.93-0.22,1.4-0.29c0.32-0.05,0.64,0,0.78,0.37c0.18,0.47-0.08,0.74-0.45,0.95c-2.81,1.63-6.31-0.16-6.58-3.44
		c-0.14-1.66-0.02-3.35-0.02-5.03C418.93,411.44,418.92,411.44,418.91,411.44z"/>
	<path fill="#FEC141" d="M135.09,405.85c1.52-1.13,3.17-2.06,5.22-1.89c0.81,0.06,1.58,0.22,2.28,0.63c0.27,0.16,0.47,0.43,0.32,0.8
		c-0.14,0.34-0.43,0.47-0.76,0.43c-0.31-0.04-0.61-0.18-0.92-0.24c-3.55-0.65-6.37,1.47-6.57,5.08c-0.13,2.39,0,4.79-0.08,7.17
		c-0.03,0.83,0.51,2.29-0.92,2.22c-1.17-0.06-0.65-1.43-0.66-2.21c-0.05-3.83-0.02-7.66-0.02-11.48c0-0.4,0-0.8,0.01-1.2
		c0.01-0.5,0.07-0.99,0.71-1.04c0.62-0.05,0.81,0.38,0.89,0.89C134.63,405.33,134.7,405.63,135.09,405.85z"/>
	<path fill="#FDC03E" d="M568.57,406.15c1.51-1.48,3.31-2.35,5.52-2.19c0.81,0.06,1.58,0.24,2.26,0.67c0.16,0.1,0.3,0.4,0.28,0.59
		c-0.03,0.34-0.32,0.59-0.66,0.56c-0.39-0.03-0.77-0.2-1.16-0.26c-3.58-0.62-6.36,1.6-6.46,5.21c-0.06,2.39-0.01,4.79-0.02,7.19
		c0,0.56-0.03,1.12-0.12,1.66c-0.05,0.32-0.31,0.54-0.68,0.55c-0.48,0.02-0.78-0.22-0.79-0.68c-0.02-4.87-0.02-9.74-0.02-14.61
		c0-0.35,0.19-0.63,0.54-0.69c0.46-0.08,0.72,0.17,0.83,0.63C568.21,405.21,567.92,405.74,568.57,406.15z"/>
	<path fill="#FEC141" d="M206.96,406.54c1.83-2.02,3.7-2.73,5.91-2.58c0.74,0.05,1.41,0.27,2.06,0.58c0.28,0.13,0.5,0.4,0.38,0.77
		c-0.11,0.35-0.4,0.52-0.72,0.5c-0.31-0.02-0.61-0.17-0.93-0.23c-3.71-0.67-6.51,1.43-6.75,5.2c-0.14,2.23-0.04,4.47-0.04,6.71
		c0,0.56,0.01,1.12-0.02,1.68c-0.02,0.5-0.11,1-0.77,0.96c-0.49-0.03-0.63-0.42-0.66-0.84c-0.02-0.32-0.02-0.64-0.02-0.96
		c0-4.15,0-8.31,0-12.46c0-0.32,0-0.64,0.02-0.96c0.03-0.44,0.21-0.78,0.72-0.76c0.51,0.01,0.63,0.38,0.67,0.81
		C206.84,405.34,206.88,405.72,206.96,406.54z"/>
	<path fill="#145DA8" d="M197.63,340.58c0.04,1.82-1.5,3.37-3.32,3.36c-1.75-0.01-3.2-1.4-3.28-3.15c-0.09-1.83,1.38-3.45,3.18-3.5
		C196.02,337.24,197.59,338.75,197.63,340.58z"/>
	<path fill="#145DA8" d="M477.77,337.29c1.79-0.05,3.37,1.49,3.4,3.31c0.03,1.74-1.37,3.24-3.1,3.34c-1.86,0.11-3.43-1.31-3.48-3.15
		C474.54,338.92,475.97,337.34,477.77,337.29z"/>
	<path fill="#FDC03E" d="M303.01,412.29c0,1.91,0,3.83,0,5.74c0,0.4,0,0.8-0.04,1.19c-0.05,0.52-0.25,0.94-0.87,0.9
		c-0.48-0.03-0.65-0.39-0.68-0.82c-0.02-0.32-0.03-0.64-0.03-0.96c0-4.15,0-8.29,0-12.44c0-0.16-0.01-0.32,0-0.48
		c0.04-0.61-0.1-1.41,0.87-1.36c0.76,0.04,0.73,0.74,0.74,1.28C303.01,407.66,303,409.98,303.01,412.29
		C303.01,412.29,303.01,412.29,303.01,412.29z"/>
	<path fill="#FDC03E" d="M654.53,411.97c0-2.3-0.01-4.61,0.01-6.91c0-0.48,0.04-0.99,0.71-1.02c0.61-0.02,0.84,0.39,0.86,0.91
		c0.04,0.87,0.04,1.75,0.04,2.62c0,3.41,0.01,6.83,0,10.24c0,0.55-0.01,1.11-0.08,1.66c-0.06,0.45-0.37,0.68-0.83,0.67
		c-0.5-0.02-0.68-0.36-0.69-0.79c-0.02-1.03-0.03-2.06-0.03-3.1C654.51,414.82,654.52,413.4,654.53,411.97
		C654.52,411.97,654.52,411.97,654.53,411.97z"/>
	<path fill="#FEC141" d="M390.15,412.33c0,2.22,0.01,4.45-0.01,6.67c0,0.46,0.03,1.03-0.61,1.1c-0.83,0.09-0.83-0.56-0.83-1.11
		c-0.01-4.61-0.01-9.21,0-13.82c0-0.47-0.02-1.03,0.62-1.1c0.84-0.09,0.82,0.56,0.83,1.11
		C390.16,407.57,390.15,409.95,390.15,412.33z"/>
	<path fill="#FEC346" d="M655.37,400.05c-0.71-0.06-1.2-0.44-1.25-1.16c-0.05-0.75,0.42-1.17,1.16-1.19
		c0.73-0.02,1.25,0.32,1.26,1.1C656.54,399.51,656.14,399.97,655.37,400.05z"/>
	<path fill="#FEC346" d="M303.46,398.79c-0.06,0.78-0.47,1.22-1.19,1.24c-0.75,0.03-1.22-0.44-1.25-1.13
		c-0.02-0.7,0.45-1.17,1.19-1.19C302.96,397.68,303.34,398.12,303.46,398.79z"/>
	<path fill="#FEC346" d="M390.64,398.79c-0.04,0.82-0.46,1.26-1.21,1.22c-0.73-0.04-1.18-0.51-1.14-1.27
		c0.03-0.64,0.43-1.02,1.08-1.04C390.14,397.67,390.54,398.1,390.64,398.79z"/>
	<path fill="#145DA8" d="M236.23,167.98c-0.93,0.88-1.87,1.77-3.04,2.35c0.21-1.47,1.43-2.07,2.44-2.86
		C235.83,167.64,236.03,167.81,236.23,167.98z"/>
	<path fill="#145DA8" d="M301.76,111.3c0.1,0.88-0.05,1.74-0.24,2.59c0.04-0.86-0.43-1.7-0.1-2.57
		C301.53,111.31,301.64,111.3,301.76,111.3z"/>
	<path fill="#145DA8" d="M363.24,301.3c0.27-0.64,0.63-1.2,1.27-1.53c0.2,0.01,0.4,0.03,0.6,0.04
		C364.6,300.46,364.19,301.22,363.24,301.3z"/>
	<path fill="#145DA8" d="M233.24,170.29c-0.24,0.37-0.63,0.45-1.02,0.52C232.49,170.5,232.7,170.07,233.24,170.29z"/>
	<path fill="#0D59A5" d="M554.25,169.34c-0.58,0.32-0.86,0.05-0.99-0.51C553.91,168.38,554.04,168.94,554.25,169.34z"/>
	<path fill="#0D59A5" d="M555.21,170.32c-0.33-0.02-0.56-0.14-0.51-0.52C555,169.84,555.15,170.03,555.21,170.32z"/>
	<path fill="#0D59A5" d="M554.74,169.83c-0.39,0.05-0.66-0.03-0.51-0.52C554.53,169.36,554.7,169.53,554.74,169.83z"/>
	<path fill="#0D59A5" d="M555.83,170.82c-0.22-0.18-0.45-0.35-0.67-0.53C555.38,170.46,555.61,170.64,555.83,170.82z"/>
	<path fill="#145DA8" d="M232.29,170.76c-0.15,0.16-0.31,0.32-0.46,0.47C231.98,171.08,232.13,170.92,232.29,170.76z"/>
	<path fill="#145DA8" d="M231.69,171.37c-0.16,0-0.23,0.08-0.21,0.24C231.58,171.54,231.65,171.46,231.69,171.37z"/>
	<path fill="#145DA8" d="M231.1,172.03c0,0,0.05-0.01,0.05-0.01C231.16,172.02,231.1,172.03,231.1,172.03z"/>
	<path fill="#145DA8" d="M362.74,301.78c0.18-0.18,0.35-0.35,0.53-0.53C363.31,301.64,363.04,301.73,362.74,301.78z"/>
	<path fill="#145DA8" d="M362.69,302.09c0.03-0.14,0.06-0.26,0.09-0.37C362.71,301.83,362.68,301.95,362.69,302.09z"/>
	<path fill="#C4D4E5" d="M358.39,305.28c-0.04,0.01-0.08,0.02-0.13,0.03c0.01-0.04,0-0.1,0.03-0.12c0.04-0.04,0.11-0.05,0.16-0.08
		C358.43,305.17,358.41,305.22,358.39,305.28z"/>
</g>
</svg>
