<svg id="_01_Website_design" data-name="01 Website design" xmlns="http://www.w3.org/2000/svg" width="67.664" height="67.443" viewBox="0 0 67.664 67.443">
  <g id="Group_291" data-name="Group 291">
    <path id="Path_3" data-name="Path 3" d="M372.744,360.825a.993.993,0,0,0-1.087.215L360.8,371.894a.993.993,0,0,0,.7,1.691h10.853a.993.993,0,0,0,.993-.993V361.739A.993.993,0,0,0,372.744,360.825ZM363.908,371.6l7.462-7.462V371.6Z" transform="translate(-312.873 -313.183)" fill="#f77f12"/>
    <path id="Path_4" data-name="Path 4" d="M67.048,32.544a.993.993,0,0,0-1.087.215l-2.967,2.974V15.509A.993.993,0,0,0,62,14.516H54.37l2.771-2.77h0L59.81,9.077a3.029,3.029,0,0,0,0-4.283L56.723,1.707a3.029,3.029,0,0,0-4.283,0l-2.669,2.67L46.544,7.6l-6.913,6.913H8.8V4.691a.993.993,0,0,0-.993-1A7.82,7.82,0,0,0,0,11.509V53.691a1,1,0,0,0,.023.214,7.523,7.523,0,0,0,7.5,6.951H37.872l-5.715,5.715a.993.993,0,0,0,.7,1.691H66.671a.993.993,0,0,0,.993-.993V33.461A.993.993,0,0,0,67.048,32.544ZM53.846,3.112a1.043,1.043,0,0,1,1.474,0L58.406,6.2a1.043,1.043,0,0,1,0,1.474L56.437,9.64,51.878,5.08ZM50.473,6.485l4.56,4.56-1.822,1.822-4.56-4.56Zm15.2,38.136H63.845a.993.993,0,1,0,0,1.986h1.833V49.6H63.845a.993.993,0,1,0,0,1.986h1.833v2.991H63.845a.993.993,0,1,0,0,1.986h1.833v2.992H63.845a.993.993,0,1,0,0,1.986h1.833V66.28H35.255L45.282,56.253a.993.993,0,1,0-1.4-1.4l-4.025,4.025H7.524a5.505,5.505,0,0,1-5.532-5.358q.008-.283.043-.561h0q.017-.132.04-.262v-.03q.021-.121.047-.232l.014-.064q.023-.1.048-.194c.01-.035.019-.069.03-.1l.046-.151c.016-.051.033-.1.051-.149s.024-.069.037-.1c.024-.065.05-.129.076-.193l.023-.056c.034-.08.069-.158.106-.236v-.01a5.847,5.847,0,0,1,4.064-3.178h.014c.082-.017.166-.031.249-.045l.042-.007c.075-.012.152-.021.228-.029l.064-.007c.074-.007.147-.012.222-.017h.07q.146-.007.294-.007a.993.993,0,0,0,.993-.993V39.671a.993.993,0,1,0-1.986,0v6.27A7.757,7.757,0,0,0,2.348,48.1c-.129.121-.251.257-.371.39V11.509A5.835,5.835,0,0,1,6.81,5.768V35.7h0a.993.993,0,0,0,1.986,0h0V16.5h28.85l-5.491,5.491a.993.993,0,0,0,1.4,1.4l7.186-7.186h0l6.5-6.5,4.559,4.56-.535.535h0L31.244,34.832l-4.559-4.559,3.947-3.947a.993.993,0,0,0-1.4-1.4l-4.65,4.65a1,1,0,0,0-.07.079l-.021.028c-.014.018-.028.037-.041.057l-.021.035c-.011.018-.022.037-.031.057l-.018.037c-.008.019-.017.039-.024.059l-.008.021L22.41,35.424,21.09,39.162a1,1,0,0,0-.04.151h-3.3a.993.993,0,0,0,0,1.986h27.5a.993.993,0,1,0,0-1.986H25.518l6.057-2.138.014-.006.07-.029.027-.012c.024-.012.047-.025.07-.039l.022-.013c.024-.016.047-.033.07-.05l.017-.013a1,1,0,0,0,.081-.071L52.383,16.5h8.624V37.719L46.8,51.926a.993.993,0,0,0,0,1.4q.036.036.075.068a.993.993,0,0,0,1.329-.068h0L65.678,35.859ZM29.428,35.83l-2.851,1-1.9-1.9,1-2.845Z" transform="translate(0 -0.82)" fill="#f77f12"/>
  </g>
</svg>
