<?xml version="1.0" encoding="utf-8"?>
<!-- Generator: Adobe Illustrator 19.2.1, SVG Export Plug-In . SVG Version: 6.00 Build 0)  -->
<svg version="1.1" id="layer" xmlns="http://www.w3.org/2000/svg" xmlns:xlink="http://www.w3.org/1999/xlink" x="0px" y="0px"
	 viewBox="0 0 652 652" style="enable-background:new 0 0 652 652;" xml:space="preserve">
<style type="text/css">
	.st0{fill:#2F495E;}
	.st1{fill:#00C58E;}
	.st2{fill:#108775;}
</style>
<path class="st0" d="M265.1,305c0.8,0.9,1.3,2,1.2,3.2v61.2c0,1.3-0.5,2.6-1.4,3.5c-0.9,1-2.2,1.5-3.5,1.4c-0.7,0-1.5-0.1-2.2-0.3
	c-0.6-0.2-1.2-0.6-1.7-1.1L218,321.3V370c0,1.2-0.4,2.3-1.3,3.2c-0.8,0.8-2,1.3-3.2,1.3c-1.2,0-2.3-0.4-3.1-1.3
	c-0.8-0.9-1.2-2-1.2-3.2v-61.4c0-1.3,0.5-2.6,1.4-3.5c0.9-0.9,2.1-1.4,3.4-1.4c0.8,0,1.6,0.1,2.3,0.4c0.7,0.3,1.3,0.7,1.7,1.3
	l39.5,51.8v-49c0-1.2,0.4-2.3,1.3-3.2c0.8-0.8,2-1.3,3.2-1.3C263.1,303.7,264.3,304.2,265.1,305z M346.6,305c0.9,1,1.3,2.2,1.3,3.5
	v38.7c0.1,5-1.1,10-3.5,14.3c-2.3,4.1-5.6,7.6-9.7,9.9c-4.3,2.4-9.1,3.7-14,3.6c-4.9,0.1-9.8-1.2-14.1-3.6c-4.1-2.3-7.5-5.8-9.8-9.9
	c-2.4-4.4-3.6-9.3-3.5-14.3v-38.7c0-1.3,0.5-2.6,1.4-3.5c1-0.9,2.3-1.5,3.6-1.4c1.3,0,2.5,0.5,3.4,1.4c0.9,0.9,1.5,2.1,1.4,3.4v38.7
	c-0.1,3.3,0.8,6.6,2.4,9.4c3.1,5.5,8.9,8.8,15.1,8.8c3.1,0,6.2-0.8,9-2.3c2.8-1.5,5.1-3.8,6.7-6.5c1.7-2.9,2.5-6.1,2.5-9.4v-38.7
	c0-1.3,0.4-2.5,1.2-3.5c0.8-0.9,2.1-1.5,3.3-1.4C344.5,303.5,345.8,304.1,346.6,305z M424.3,367.1c0.6,0.8,0.9,1.8,0.9,2.9
	c0.1,1.3-0.5,2.6-1.4,3.4c-0.9,0.8-2.1,1.3-3.3,1.3c-1.6,0.1-3.1-0.7-3.9-2l-19.6-26.2l-19.2,26.1c-0.9,1.3-2.3,2.1-3.9,2.1
	c-1.2,0-2.3-0.4-3.1-1.3c-0.8-0.7-1.3-1.8-1.3-2.9c0-1.2,0.5-2.4,1.2-3.3l20.7-28.2l-20.8-28c-0.6-0.8-1-1.8-1-2.9
	c0-1.3,0.5-2.5,1.4-3.4c0.9-0.9,2.1-1.4,3.4-1.4c0.8,0,1.5,0.2,2.2,0.5c0.7,0.3,1.3,0.9,1.8,1.5l19.4,26l19.2-25.8
	c0.8-1.3,2.3-2.1,3.8-2.2c1.2,0,2.4,0.5,3.2,1.4c0.9,0.8,1.4,1.9,1.4,3.1c0,1-0.4,2-1,2.9l-21.1,28
	C403.3,339,424.3,367.1,424.3,367.1z M497.1,305c0.9,0.9,1.5,2.1,1.4,3.4c0,1.3-0.5,2.5-1.4,3.3c-1,0.8-2.2,1.3-3.5,1.2h-18v56.6
	c0,1.3-0.5,2.5-1.4,3.4c-2.1,1.9-5.3,1.9-7.4,0c-0.9-0.9-1.5-2.1-1.4-3.4v-56.6h-17.9c-1.3,0-2.5-0.4-3.5-1.2
	c-0.9-0.9-1.4-2.1-1.4-3.4c0-1.2,0.5-2.4,1.4-3.3c1-0.8,2.2-1.3,3.5-1.2h46.1C494.9,303.7,496.1,304.1,497.1,305z"/>
<path class="st1" d="M519.2,372.6c-3.3-1.9-6-4.5-7.9-7.8c-0.6-0.8-0.9-1.7-0.9-2.7c0-1.3,0.6-2.5,1.5-3.3c0.8-0.9,1.9-1.4,3.1-1.4
	c1.8,0.2,3.5,1.1,4.5,2.5c2.2,3.7,6.3,5.9,10.6,5.9c3.5,0.1,6.9-1.3,9.4-3.7c2.5-2.4,3.9-5.7,3.8-9.2v-44.2c0-1.3,0.5-2.6,1.5-3.4
	c0.9-0.9,2.2-1.4,3.5-1.4c1.3-0.1,2.6,0.4,3.6,1.4c0.9,0.9,1.4,2.2,1.4,3.5v44.3c0,4-1,7.9-3,11.3c-2,3.4-4.9,6.2-8.3,8.2
	c-3.6,2-7.7,3.1-11.9,3C526.3,375.4,522.6,374.5,519.2,372.6L519.2,372.6z M588.6,373.3c-4-1.5-7.7-3.8-10.8-6.7
	c-1.3-1-2.1-2.5-2.1-4.1c0-1.2,0.5-2.4,1.4-3.3c0.9-0.9,2.1-1.4,3.3-1.4c1.1,0,2.1,0.4,2.9,1.1c2.4,2.3,5.2,4.2,8.3,5.5
	c3.1,1.2,6.4,1.8,9.7,1.8c3.8,0.1,7.5-0.9,10.7-2.9c2.7-1.5,4.3-4.3,4.4-7.4c0.1-3.3-1.6-6.4-4.4-8.1c-4-2.4-8.5-4-13.1-4.8
	c-6.9-1.4-12.3-3.7-16-7c-3.7-3.2-5.6-7.7-5.6-13.4c-0.1-3.8,1-7.4,3.2-10.5c2.2-3.1,5.2-5.5,8.6-6.9c4-1.7,8.2-2.5,12.5-2.4
	c4,0,8,0.7,11.8,2c3.3,1.1,6.4,3,9,5.4c1.4,1,2.2,2.6,2.3,4.3c0,1.2-0.5,2.4-1.4,3.2c-0.8,0.9-2,1.5-3.3,1.4c-0.8,0-1.7-0.3-2.3-0.8
	c-2.1-2-4.6-3.5-7.3-4.4c-2.8-1.1-5.8-1.7-8.8-1.8c-3.8-0.2-7.5,0.8-10.7,2.8c-2.5,1.7-4,4.4-4,7.4s1.5,5.8,4,7.4
	c3.7,2.1,7.7,3.6,11.9,4.4c4.4,0.9,8.8,2.2,12.9,4c3.1,1.4,5.8,3.6,7.7,6.5c1.9,3.3,2.9,7,2.7,10.8c0.1,3.7-1.1,7.4-3.3,10.4
	c-2.3,3.1-5.4,5.6-8.9,7.1c-3.9,1.7-8.1,2.6-12.4,2.5C597.2,375.5,592.8,374.8,588.6,373.3z"/>
<path class="st1" d="M68.2,373.6c-0.1-0.2-0.2-0.4-0.3-0.6c-0.6-1.3-0.7-2.7-0.5-4H34.9l48.4-85.2l15.9,27.9l4.6-8.2l-13.8-24.4
	c-0.4-0.7-2.7-4.5-6.8-4.5c-1.8,0-4.4,0.8-6.6,4.5l-49,86.2c-0.4,0.7-2.4,4.7-0.4,8.1c0.9,1.6,2.9,3.5,7.2,3.5h41.1
	C71.1,377,69.1,375.2,68.2,373.6z"/>
<path class="st2" d="M162.6,365.4l-40.3-71c-0.4-0.7-2.7-4.5-6.8-4.5c-1.8,0-4.4,0.8-6.6,4.5l-5.2,9.1l4.6,8.2l7.2-12.7l39.8,69.9
	h-15.2c0.2,1.2,0.1,2.3-0.3,3.4c-0.1,0.2-0.2,0.5-0.3,0.7l-0.1,0.3c-2,3.5-6.4,3.7-7.3,3.7h23.7c0.9,0,5.3-0.2,7.3-3.7
	C164.1,371.8,164.8,369.1,162.6,365.4z"/>
<path class="st0" d="M139.5,373.4l0.1-0.3c0.1-0.2,0.2-0.5,0.3-0.7c0.4-1.1,0.5-2.3,0.3-3.4c-0.2-1.2-0.7-2.4-1.3-3.5l-30.5-53.7
	l-4.7-8.2l-4.6,8.2l-30.5,53.7c-0.6,1.1-1,2.3-1.2,3.5c-0.2,1.4-0.1,2.8,0.4,4c0.1,0.2,0.2,0.4,0.3,0.6c0.9,1.6,2.9,3.5,7.2,3.5
	h56.8C133.1,377,137.5,376.8,139.5,373.4z M103.8,319.9l27.9,49.1H75.9L103.8,319.9z"/>
</svg>
