<svg xmlns="http://www.w3.org/2000/svg" xmlns:xlink="http://www.w3.org/1999/xlink" width="165" height="205" viewBox="0 0 165 205">
  <defs>
    <clipPath id="clip-path">
      <rect width="165" height="205" fill="none"/>
    </clipPath>
  </defs>
  <g id="Repeat_Grid_1" data-name="Repeat Grid 1" clip-path="url(#clip-path)">
    <g transform="translate(-1321 -1034)">
      <circle id="Ellipse_6" data-name="Ellipse 6" cx="15.5" cy="15.5" r="15.5" transform="translate(1321 1034)" fill="rgba(247,127,18,0.35)"/>
    </g>
    <g transform="translate(-1280 -1034)">
      <circle id="Ellipse_6-2" data-name="Ellipse 6" cx="15.5" cy="15.5" r="15.5" transform="translate(1321 1034)" fill="rgba(247,127,18,0.35)"/>
    </g>
    <g transform="translate(-1239 -1034)">
      <circle id="Ellipse_6-3" data-name="Ellipse 6" cx="15.5" cy="15.5" r="15.5" transform="translate(1321 1034)" fill="rgba(247,127,18,0.35)"/>
    </g>
    <g transform="translate(-1198 -1034)">
      <circle id="Ellipse_6-4" data-name="Ellipse 6" cx="15.5" cy="15.5" r="15.5" transform="translate(1321 1034)" fill="rgba(247,127,18,0.35)"/>
    </g>
    <g transform="translate(-1321 -993)">
      <circle id="Ellipse_6-5" data-name="Ellipse 6" cx="15.5" cy="15.5" r="15.5" transform="translate(1321 1034)" fill="rgba(247,127,18,0.35)"/>
    </g>
    <g transform="translate(-1280 -993)">
      <circle id="Ellipse_6-6" data-name="Ellipse 6" cx="15.5" cy="15.5" r="15.5" transform="translate(1321 1034)" fill="rgba(247,127,18,0.35)"/>
    </g>
    <g transform="translate(-1239 -993)">
      <circle id="Ellipse_6-7" data-name="Ellipse 6" cx="15.5" cy="15.5" r="15.5" transform="translate(1321 1034)" fill="rgba(247,127,18,0.35)"/>
    </g>
    <g transform="translate(-1198 -993)">
      <circle id="Ellipse_6-8" data-name="Ellipse 6" cx="15.5" cy="15.5" r="15.5" transform="translate(1321 1034)" fill="rgba(247,127,18,0.35)"/>
    </g>
    <g transform="translate(-1321 -952)">
      <circle id="Ellipse_6-9" data-name="Ellipse 6" cx="15.5" cy="15.5" r="15.5" transform="translate(1321 1034)" fill="rgba(247,127,18,0.35)"/>
    </g>
    <g transform="translate(-1280 -952)">
      <circle id="Ellipse_6-10" data-name="Ellipse 6" cx="15.5" cy="15.5" r="15.5" transform="translate(1321 1034)" fill="rgba(247,127,18,0.35)"/>
    </g>
    <g transform="translate(-1239 -952)">
      <circle id="Ellipse_6-11" data-name="Ellipse 6" cx="15.5" cy="15.5" r="15.5" transform="translate(1321 1034)" fill="rgba(247,127,18,0.35)"/>
    </g>
    <g transform="translate(-1198 -952)">
      <circle id="Ellipse_6-12" data-name="Ellipse 6" cx="15.5" cy="15.5" r="15.5" transform="translate(1321 1034)" fill="rgba(247,127,18,0.35)"/>
    </g>
    <g transform="translate(-1321 -911)">
      <circle id="Ellipse_6-13" data-name="Ellipse 6" cx="15.5" cy="15.5" r="15.5" transform="translate(1321 1034)" fill="rgba(247,127,18,0.35)"/>
    </g>
    <g transform="translate(-1280 -911)">
      <circle id="Ellipse_6-14" data-name="Ellipse 6" cx="15.5" cy="15.5" r="15.5" transform="translate(1321 1034)" fill="rgba(247,127,18,0.35)"/>
    </g>
    <g transform="translate(-1239 -911)">
      <circle id="Ellipse_6-15" data-name="Ellipse 6" cx="15.5" cy="15.5" r="15.5" transform="translate(1321 1034)" fill="rgba(247,127,18,0.35)"/>
    </g>
    <g transform="translate(-1198 -911)">
      <circle id="Ellipse_6-16" data-name="Ellipse 6" cx="15.5" cy="15.5" r="15.5" transform="translate(1321 1034)" fill="rgba(247,127,18,0.35)"/>
    </g>
    <g transform="translate(-1321 -870)">
      <circle id="Ellipse_6-17" data-name="Ellipse 6" cx="15.5" cy="15.5" r="15.5" transform="translate(1321 1034)" fill="rgba(247,127,18,0.35)"/>
    </g>
    <g transform="translate(-1280 -870)">
      <circle id="Ellipse_6-18" data-name="Ellipse 6" cx="15.5" cy="15.5" r="15.5" transform="translate(1321 1034)" fill="rgba(247,127,18,0.35)"/>
    </g>
    <g transform="translate(-1239 -870)">
      <circle id="Ellipse_6-19" data-name="Ellipse 6" cx="15.5" cy="15.5" r="15.5" transform="translate(1321 1034)" fill="rgba(247,127,18,0.35)"/>
    </g>
    <g transform="translate(-1198 -870)">
      <circle id="Ellipse_6-20" data-name="Ellipse 6" cx="15.5" cy="15.5" r="15.5" transform="translate(1321 1034)" fill="rgba(247,127,18,0.35)"/>
    </g>
  </g>
</svg>
