<svg xmlns="http://www.w3.org/2000/svg" width="59" height="59" viewBox="0 0 59 59">
  <g id="Group_40" data-name="Group 40" transform="translate(-635 -1709)">
    <!-- <circle id="Ellipse_7" data-name="Ellipse 7" cx="29.5" cy="29.5" r="29.5" transform="translate(635 1709)" fill="#f77f12"/> -->
    <g id="left-quote" transform="translate(677.947 1757.588) rotate(180)">
      <g id="Group_32" data-name="Group 32" transform="translate(0 7.858)">
        <path id="Path_10" data-name="Path 10" d="M8.608,18.036a7.126,7.126,0,0,0-1.969-.287,6.188,6.188,0,0,0-2.469.506c.621-2.272,2.112-6.192,5.081-6.634a.706.706,0,0,0,.575-.507l.649-2.322A.705.705,0,0,0,9.892,7.9a4.93,4.93,0,0,0-.664-.045c-3.565,0-7.1,3.721-8.585,9.049-.875,3.126-1.131,7.825,1.023,10.783a6.431,6.431,0,0,0,5.227,2.627h.028A6.257,6.257,0,0,0,8.608,18.036Z" transform="translate(0 -7.858)" fill="#f77f12"/>
        <path id="Path_11" data-name="Path 11" d="M60.995,20.991a6.271,6.271,0,0,0-3.762-2.955,7.125,7.125,0,0,0-1.969-.287,6.189,6.189,0,0,0-2.469.506c.621-2.272,2.112-6.192,5.082-6.634a.706.706,0,0,0,.575-.507L59.1,8.792a.705.705,0,0,0-.583-.889,4.924,4.924,0,0,0-.664-.045c-3.565,0-7.1,3.721-8.585,9.049-.874,3.126-1.131,7.825,1.024,10.783a6.43,6.43,0,0,0,5.227,2.627h.028a6.257,6.257,0,0,0,5.448-9.326Z" transform="translate(-34.909 -7.858)" fill="#f77f12"/>
      </g>
    </g>
  </g>
</svg>
