<svg id="Layer_1" data-name="Layer 1" xmlns="http://www.w3.org/2000/svg" viewBox="0 0 1436.83 332.48"><defs><style>.cls-1{fill:#3c3c3b;}.cls-2{fill:#3f3f3e;}.cls-3{fill:#33ea9a;}.cls-4{fill:#fdfdfd;}.cls-5{fill:#2ee998;}</style></defs><path class="cls-1" d="M197.83,331.54c3.94-10.46,7.87-20.92,12.07-32.06H180c0-7,0-13.42,0-19.87,0-15.66.15-31.32.13-47,0-5.91-2-7.8-7.75-7.92-6.06-.13-8,1.83-8,8.62-.07,17,0,34,0,51V299h-5.69v-5.92c0-12.5,0-25,0-37.5,0-7-1.52-8.58-7.91-8.61-6.09,0-7.52,1.55-7.55,8.33q-.09,19.5-.17,39V299h-5v-4.48c0-19.17.19-38.33,0-57.49,0-2.51-1.21-6.49-2.92-7.18a15,15,0,0,0-10,0c-1.54.55-2.58,4.42-2.63,6.82-.25,13.16-.12,26.33-.12,39.49V299c-1.78.12-3.2.3-4.62.3q-49.74,0-99.49,0C6.39,299.31,0,292.94,0,281.14q0-131.47,0-263C0,6.36,6.37,0,18.2,0h263C293,0,299.32,6.39,299.32,18.26q0,131.48,0,263c0,11.68-6.59,18.89-18.32,17.91-16.33-1.36-30.5,2.6-44,11.87C226.52,318.24,215,324,203.82,330.28a49.39,49.39,0,0,1-5,2.2ZM150.35,218.17c8.83,0,17.66.05,26.49,0,6,0,8.79-2.17,10.64-7.79q3.57-10.89,7.16-21.77c5.43-16.48,9.59-33.24,10.52-50.65,1.65-31.17-6.38-59.94-21.82-86.8-6.82-11.86-14.25-23.35-24.79-32.35-7.7-6.57-12.64-6.65-19.32,1a176.11,176.11,0,0,0-18.08,24.37C88.42,97.85,87.51,153.4,112.36,210.25c2.42,5.54,6.43,8.09,12.5,8C133.35,218,141.85,218.17,150.35,218.17ZM75,255.07c1.7-20.57,13.66-31.81,31.26-38.28L90.86,169.28C70.84,186.66,62.71,229.5,75,255.07Zm150.67-2.76c11.45-21.15,1.31-71.53-17.11-84.22l-15.46,47.68C213.78,224.16,220.37,231.63,225.65,252.31Z"/><path class="cls-2" d="M935.48,194.17c4-21.66,8-43.33,12-65.26h27.27c-2.71,10.75-5.32,21.19-8,31.61-4.92,19.33-10,38.62-14.74,58-1,4.24-2.71,5.92-7.33,5.63-7.64-.48-15.33-.28-23,0-3.12.09-4.22-1-5-4-4.7-18-9.66-35.95-14.55-53.91-.34-1.26-.76-2.5-1.52-5-3.36,12.24-6.41,23.31-9.45,34.39-2.29,8.33-4.71,16.62-6.77,25-.65,2.65-1.73,3.47-4.36,3.43-8.66-.15-17.33-.09-26,0-2,0-3.36-.25-4-2.65Q838.67,176,827,130.56a8.42,8.42,0,0,1,0-1.69h28.83q6.1,33,12.22,65.94l.66,0c5.14-19.81,10.22-39.64,15.43-59.43,2.12-8,.32-6.6,8.74-6.7,7.83-.09,15.65,0,24.09,0l17.49,65.54Z"/><path class="cls-2" d="M365.24,104.1c20.36,0,40.31-1.64,59.88.38,30.62,3.17,37.29,29,32.06,48.29-3,11.11-10.67,18.12-21.24,22.15-1.55.59-3.14,1.06-5.17,1.73L459.32,224c-10.81,0-20.85.11-30.88-.13-1.16,0-2.62-1.74-3.36-3-7.44-12.77-14.88-25.55-22-38.49-1.93-3.48-4.15-4.93-8.45-3.57v44.86H365.24Zm29.47,24.1v30c6.84,0,13.33.14,19.81,0,9-.24,14.23-5.55,14.47-14.41s-5.29-15.05-14.11-15.46C408.26,128,401.61,128.2,394.71,128.2Z"/><path class="cls-2" d="M1362.27,142.13V98h29.15V223.67h-28.86V209.55c-.84.17-1.27.13-1.36.29-11.26,18.78-36.43,18.12-50,9.29-10-6.56-15.77-16.11-18.22-27.58-3.56-16.66-2.58-32.85,7.23-47.47,10.41-15.51,32-21.47,48.19-12.93C1353.53,133.84,1357.65,138.38,1362.27,142.13Zm0,34.14c0-.83,0-1.67,0-2.49-.43-11.38-8.1-19.63-19.07-20.52s-19.54,5.71-21.5,17a38.09,38.09,0,0,0,.23,12.82c1.31,7.58,5.72,13,13.34,15.18C1350.1,202.62,1362.34,192.63,1362.31,176.27Z"/><path class="cls-2" d="M1249.21,143.92V128.86H1278v94.82h-28.79v-14c-4.55,3.87-8.55,8.52-13.57,11.3-15.53,8.6-36.52,3.55-47.55-10.74-8.26-10.7-10.64-23.13-10.33-36.21.24-9.92,2.34-19.44,7.64-28.06,12-19.48,39.42-24.87,55.92-10.82C1244,137.5,1246.12,140.49,1249.21,143.92Zm-41.5,32.41c0,11,4.52,18.6,12.81,21.66,12.49,4.6,25.11-2.52,27.76-15.66,2.62-13-2.48-24.23-12.72-27.82C1222.45,149.92,1207.1,157.46,1207.71,176.33Z"/><path class="cls-2" d="M1166.68,181.72h-65.07c-.33,9.9,4,16.65,11.87,18.94,9.36,2.74,16.28-.52,22.1-10.43h30.63c-2.54,12.6-9.2,22.07-20.08,28.07-17.17,9.47-34.91,9.6-51.9-.08-16.67-9.49-22.1-25.52-21.77-43.69.27-14.7,5-27.74,17-37.27,19.53-15.49,59.16-14,73.1,13.45A48.05,48.05,0,0,1,1166.68,181.72ZM1138,169c-.11-11.38-6.81-18.24-17.55-18.26-12.21,0-19.24,9.1-18.72,18.26Z"/><path class="cls-2" d="M819.44,190.21c-2.59,12.43-9,21.69-19.43,27.7-16.47,9.5-33.78,10-50.57,1.43-18.25-9.37-24.21-26.08-23.71-45.51.36-14,4.9-26.4,15.95-35.77,19.49-16.53,60-14.93,73.89,12.36a47.31,47.31,0,0,1,4.49,31.41H754.67c.4,11,4.91,17.43,13.12,19.17,9.39,2,16.24-1.51,20.78-10.79Zm-28.39-21.27c.18-11.32-6.92-18.48-17.84-18.21s-18.44,7.76-18,18.21Z"/><path class="cls-2" d="M562.29,181.7H497.77c-1.55,8.24,2.64,15.72,10.14,18.54,8.37,3.14,17.64.45,21.34-6.79,1.49-2.93,3.13-3.59,6.1-3.52,8.33.2,16.66.09,25,.12a7,7,0,0,1,1.38.41c-1.64,9.5-6.44,17.09-13.58,23.42-19.2,17-59.53,16-73.8-11.76-9-17.4-9-35.47.44-52.66,9.17-16.69,25-22.42,43-21.86a59,59,0,0,1,20.73,4.67C556.84,140,567.07,161.66,562.29,181.7Zm-65-12.87h36.1c.28-10.94-5.81-17.5-16.48-18.07C505.9,150.16,498,157.4,497.3,168.83Z"/><path class="cls-2" d="M638.46,128.9H669.7C658.41,160.75,647.28,192.13,636,224c-11.44,0-22.88.1-34.3-.16-1.11,0-2.66-2.15-3.18-3.6C592,202.12,585.58,184,579.15,165.79c-4.31-12.16-8.63-24.32-13.09-36.89h31.25c6.71,21.25,13.48,42.71,20.25,64.17l.91.15Q628.47,161,638.46,128.9Z"/><path class="cls-1" d="M998.18,223.74v-120H1027V201h38.67v22.73Z"/><path class="cls-2" d="M710.64,223.77h-29V129h29Z"/><path class="cls-3" d="M1436.83,194.57v29.11h-30.25V194.57Z"/><path class="cls-2" d="M696.41,117.34c-11.69,0-18.75-7.21-17.37-17.86,0-.16.05-.33.07-.49,1-6.43,6.37-11,14-12,8.92-1.19,16.4,2.24,19.34,8.87,2.64,6,1.47,13.38-3.72,17.15-3.44,2.51-7.85,3.69-11.82,5.46C696.73,118.07,696.57,117.71,696.41,117.34Z"/><path class="cls-4" d="M150.35,218.17c-8.5,0-17-.14-25.49,0-6.07.13-10.08-2.42-12.5-8C87.51,153.4,88.42,97.85,121.15,44.13a176.11,176.11,0,0,1,18.08-24.37c6.68-7.62,11.62-7.54,19.32-1,10.54,9,18,20.49,24.79,32.35,15.44,26.86,23.47,55.63,21.82,86.8-.93,17.41-5.09,34.17-10.52,50.65q-3.58,10.89-7.16,21.77c-1.85,5.62-4.66,7.75-10.64,7.79C168,218.22,159.18,218.17,150.35,218.17Zm-17.22-84.51c-.27,4.49,1.16,5.45,5.25,3.44a66.11,66.11,0,0,0,6.61-3.5c3.1-2,5.94-2.25,9.13,0a45.67,45.67,0,0,0,7.51,3.9c3.31,1.46,4.83.49,4.52-3.07a71.06,71.06,0,0,0-1.68-9.81,5.6,5.6,0,0,1,1.95-6.15,87.79,87.79,0,0,0,7.48-7.34c2.14-2.33,1.52-4.21-1.57-5a37.24,37.24,0,0,0-6.39-1c-4.94-.31-8.94-1.72-10.41-7.14a16.36,16.36,0,0,0-2.44-4.89,31,31,0,0,0-3.55-3.71,22.28,22.28,0,0,0-3.2,3.48,65.28,65.28,0,0,0-4,8,5,5,0,0,1-4.77,3.5,79.21,79.21,0,0,0-10.81,1.72c-2.93.64-3.44,2.5-1.43,4.71a84.84,84.84,0,0,0,6.7,6.71c2.45,2.16,3.71,4.31,2.52,7.78C133.62,128,133.56,130.87,133.13,133.66Z"/><path class="cls-4" d="M75,255.07c-12.27-25.57-4.14-68.41,15.88-85.79l15.38,47.51C88.64,223.26,76.68,234.5,75,255.07Z"/><path class="cls-4" d="M225.65,252.31c-5.28-20.68-11.87-28.15-32.57-36.54l15.46-47.68C227,180.78,237.1,231.16,225.65,252.31Z"/><path class="cls-5" d="M133.12,133.66c.44-2.79.5-5.71,1.41-8.33,1.19-3.47-.07-5.62-2.52-7.78a84.84,84.84,0,0,1-6.7-6.71c-2-2.21-1.5-4.07,1.43-4.71a79.21,79.21,0,0,1,10.81-1.72,5,5,0,0,0,4.77-3.5,65.28,65.28,0,0,1,4-8,22.28,22.28,0,0,1,3.2-3.48,31,31,0,0,1,3.55,3.71A16.36,16.36,0,0,1,155.53,98c1.47,5.42,5.47,6.83,10.41,7.14a37.24,37.24,0,0,1,6.39,1c3.09.74,3.71,2.62,1.57,5a87.79,87.79,0,0,1-7.48,7.34,5.6,5.6,0,0,0-1.95,6.15,71.06,71.06,0,0,1,1.68,9.81c.31,3.56-1.21,4.53-4.52,3.07a45.67,45.67,0,0,1-7.51-3.9c-3.19-2.2-6-2-9.13,0a66.11,66.11,0,0,1-6.61,3.5C134.29,139.11,132.86,138.15,133.12,133.66Z"/></svg>