<svg id="Layer_1" data-name="Layer 1" xmlns="http://www.w3.org/2000/svg" viewBox="0 0 375 108.01"><defs><style>.cls-1{fill:#94bd47;}.cls-2{fill:#050505;}.cls-3{fill:#5f8d3e;}.cls-4{fill:#040404;}.cls-5{fill:#fcfdfb;}</style></defs><path class="cls-1" d="M73.29,123c-13.8-2.51-27.59-5.06-41.39-7.51C25,114.26,18,113.21,11,112.08v-4.49c1-6.06,2.12-12.1,2.94-18.18C15.79,75.62,17.42,61.8,19.38,48c.18-1.32,1.88-3.29,3.08-3.45,7.74-1,11.28-5.5,13.53-12.8C38.37,24,43.33,17.59,52,15.39c1.39-.36,3.22-.65,4.35,0,6.22,3.35,14.58,4.09,16.11,12.85h5.36Q77,44.74,76.21,61.3c-.25,5.2-.53,10.4-.77,15.61Q74.35,99.95,73.29,123ZM61.57,53.42C53,51.13,45.28,51.56,38.34,56.73c-7.87,5.88-11.29,20.25,0,27.75a15.92,15.92,0,0,1,3,2.76c1.68,1.9,2.53,4.09,1,6.47s-4,2.39-6.32,1.51c-2.61-1-5.06-2.44-7.72-3.75-.76,2.45-1.65,4.79-2.17,7.2a3.59,3.59,0,0,0,.8,2.93,20.37,20.37,0,0,0,18.45,4.81c6.15-1.32,9.57-5.59,11-11.49,1.72-7.36-.23-13.54-6.4-18.18-1.69-1.27-3.78-2.2-5.05-3.79s-2.52-4-2-5.34c.69-1.59,3.21-3.14,5.08-3.33,3-.3,6.07.53,9.51.93ZM56.16,19.47c-7.32-3-17.44,9.87-18.66,21.1,3.17-1.86,7.24-2.81,8.06-5C47.9,29.36,50.15,23.39,56.16,19.47ZM49.8,35.81C61.33,33,62.91,30.55,58.59,23,53.52,25.61,51.53,30.24,49.8,35.81ZM70,29.72,64.5,22l-1.21.68,1.19,8.79Z" transform="translate(-11 -15)"/><path class="cls-2" d="M386,56.74a18.53,18.53,0,0,0-1.94,2.72C379,70.1,374.17,80.9,368.71,91.36a145.73,145.73,0,0,1-11.6,18.19,26.43,26.43,0,0,1-15.83,10.32c-1.18-3.48-2.32-6.85-3.25-9.58,4.24-3.21,8.27-6,12-9.19,2.24-1.89,2.54-4.5,1.94-7.49-2.58-12.78-4.93-25.61-7.42-38.72h13.57c1,9.94,2.1,20,3.15,30.06l.55.14,11.7-30.59H386Z" transform="translate(-11 -15)"/><path class="cls-3" d="M73.29,123q1.06-23,2.15-46.09c.24-5.21.52-10.41.77-15.61Q77,44.74,77.78,28.2a9.53,9.53,0,0,1,2.06,1.49c3.07,3.84,6.83,6.06,11.93,5.39,2.48-.32,2.82,1.41,3.09,3.22q4.22,28.77,8.44,57.52c1,6.62,2,13.23,3,20.23Z" transform="translate(-11 -15)"/><path class="cls-4" d="M255.19,98.93c-1.18,6.07-2.35,12.13-3.55,18.33H239c3.9-20.91,7.79-41.72,11.71-62.72h10.82c-.09,1.93-.19,3.82-.3,6.24,1.31-1.19,2.26-2.1,3.26-2.94,4.63-3.87,9.87-5.52,15.63-3.2s7.45,7.31,7.82,13A34.89,34.89,0,0,1,284,86.33C277.92,98,268,102.37,255.19,98.93Zm20.3-26.22-.92-.37a7,7,0,0,0-.21-2.58c-.88-1.77-1.69-4.4-3.12-4.87a7,7,0,0,0-5.94,1.47,19.46,19.46,0,0,0-4.57,7.46c-1.28,3.72-1.77,7.71-2.57,11.59-.93,4.44,1.46,6.92,5.88,5.45a11.22,11.22,0,0,0,6-4.6C272.31,82,273.72,77.25,275.49,72.71Z" transform="translate(-11 -15)"/><path class="cls-4" d="M172.49,59.23c3.35-2.87,6.85-5.34,11.53-5.53,7.33-.3,11.63,3.3,11.26,10.6-.3,5.91-1.67,11.78-2.68,17.65-1,5.63-2.08,11.24-3.14,16.86a3.46,3.46,0,0,1-.4.74h-12.5c.94-4.94,1.89-9.73,2.77-14.53.94-5.13,2-10.24,2.59-15.42.17-1.64-1-4.7-2-4.91-1.85-.38-4.92.22-5.91,1.56A33.52,33.52,0,0,0,168.55,77c-2,7.4-3.18,15-4.7,22.57H151.08c4.13-21.57,8.23-43,12.36-64.57h12.77q-2.21,11.84-4.4,23.62l0,1.2Z" transform="translate(-11 -15)"/><path class="cls-4" d="M199.21,82.21c.12-12.51,7.36-23.55,17.88-27.23,14.19-5,25.28,3,24.9,18-.36,13.7-9.09,25.07-21,27.34C208.13,102.73,199.09,95.22,199.21,82.21Zm12.41-1.06c.58,5.31,2.09,8.46,5.14,9.3,3.42.93,6.85-.67,8.73-5.32a67,67,0,0,0,3.63-13.93c.53-3.19-.51-6.4-4.07-7.54s-6.61.7-8.11,3.78C214.8,71.83,213.36,76.56,211.62,81.15Z" transform="translate(-11 -15)"/><path class="cls-2" d="M334.17,54.37h8.53c-.62,3.35-1.18,6.42-1.78,9.62h-8.85c-2.29,11.88-4.56,23.66-6.82,35.42h-12.8c2.22-11.77,4.42-23.34,6.66-35.21l-6-.36c.59-3.18,1.14-6.18,1.73-9.39h5.95c1.59-8,4-15.47,12.09-19.09a20.72,20.72,0,0,1,15.52-.67l-2.76,9.64C337.83,43.45,334.67,46.16,334.17,54.37Z" transform="translate(-11 -15)"/><path class="cls-2" d="M151,55.56c-1,3.25-1.93,6-2.75,8.63-3.08-.49-5.84-1.49-8.41-1.13a8.21,8.21,0,0,0-5.3,3.62c-.46.79,1.61,3.46,3,4.81s3.61,2.2,5.27,3.5c7.06,5.51,7.15,15.1.28,20.9-6.43,5.42-19.55,6-26.94,1l2.91-8.11c3.4.78,6.58,1.73,9.84,2.17,2.53.34,5.15-.14,6.08-3.1.88-2.77-.89-4.45-2.91-5.86-1.63-1.14-3.42-2.06-5-3.26-8.12-6.13-7.66-16.7,1.1-22C135.3,52.43,142.85,52.9,151,55.56Z" transform="translate(-11 -15)"/><path class="cls-2" d="M301.34,99.4H288.49c2.88-14.93,5.71-29.66,8.58-44.57h12.77Q305.55,77.32,301.34,99.4Z" transform="translate(-11 -15)"/><path class="cls-4" d="M312.7,42c0,4.5-3,7.36-7.65,7.28-3.91-.06-6.19-2.44-6.15-6.4a7.32,7.32,0,0,1,7.71-7.38C310.5,35.64,312.74,38,312.7,42Z" transform="translate(-11 -15)"/><path class="cls-5" d="M61.57,53.42l-4,11.79c-3.44-.4-6.53-1.23-9.51-.93-1.87.19-4.39,1.74-5.08,3.33-.56,1.3.78,3.88,2,5.34S48.3,75.47,50,76.74c6.17,4.64,8.12,10.82,6.4,18.18-1.39,5.9-4.81,10.17-11,11.49A20.37,20.37,0,0,1,27,101.6a3.59,3.59,0,0,1-.8-2.93c.52-2.41,1.41-4.75,2.17-7.2,2.66,1.31,5.11,2.75,7.72,3.75,2.29.88,4.77,1,6.32-1.51s.63-4.57-1-6.47a15.92,15.92,0,0,0-3-2.76c-11.25-7.5-7.83-21.87,0-27.75C45.28,51.56,53,51.13,61.57,53.42Z" transform="translate(-11 -15)"/></svg>