<svg id="_03_Monthly_updates" data-name="03 Monthly updates" xmlns="http://www.w3.org/2000/svg" width="70.825" height="70.825" viewBox="0 0 70.825 70.825">
  <path id="Path_93" data-name="Path 93" d="M53.118,36.592V32.513a11.826,11.826,0,0,0,1.916-.8l2.892,2.889a1.179,1.179,0,0,0,1.669,0l3.341-3.341a1.179,1.179,0,0,0,0-1.669L60.046,26.7a11.826,11.826,0,0,0,.8-1.916h4.079A1.181,1.181,0,0,0,66.1,23.607V18.886a1.181,1.181,0,0,0-1.181-1.181H60.843a11.826,11.826,0,0,0-.8-1.916L62.935,12.9a1.179,1.179,0,0,0,0-1.669l-3.341-3.34a1.142,1.142,0,0,0-.575-.3V3.542A3.542,3.542,0,0,0,55.479,0H3.542A3.542,3.542,0,0,0,0,3.542V55.479A3.542,3.542,0,0,0,3.542,59.02H20.579a1.142,1.142,0,0,0,.3.575l3.341,3.341a1.179,1.179,0,0,0,1.669,0l2.892-2.889a11.826,11.826,0,0,0,1.916.8v4.079A1.181,1.181,0,0,0,31.874,66.1h4.721a1.181,1.181,0,0,0,1.181-1.181V60.2a1.181,1.181,0,0,0-2.361,0v3.542H33.051v-3.8a1.179,1.179,0,0,0-.915-1.149,9.588,9.588,0,0,1-2.929-1.218,1.181,1.181,0,0,0-1.466.164l-2.695,2.7-1.677-1.677.086-.085,2.616-2.608a1.181,1.181,0,0,0,.164-1.466,9.583,9.583,0,0,1-1.223-2.927,1.179,1.179,0,0,0-1.149-.918h-3.8V48.4h3.8a1.179,1.179,0,0,0,1.149-.915,9.589,9.589,0,0,1,1.218-2.929,1.181,1.181,0,0,0-.164-1.466l-2.7-2.695,1.677-1.677,2.691,2.7a1.181,1.181,0,0,0,1.466.164,9.583,9.583,0,0,1,2.928-1.22,1.179,1.179,0,0,0,.918-1.149v-3.8h2.361v3.8a1.179,1.179,0,0,0,.915,1.149,9.589,9.589,0,0,1,2.929,1.218,1.181,1.181,0,0,0,1.262-2,11.766,11.766,0,0,0-2.743-1.272V34.231a1.181,1.181,0,0,0-1.181-1.181H31.871a1.181,1.181,0,0,0-1.181,1.181v4.079a11.827,11.827,0,0,0-1.916.8l-2.892-2.889a1.179,1.179,0,0,0-1.669,0l-3.341,3.341a1.179,1.179,0,0,0,0,1.669l2.889,2.892a11.826,11.826,0,0,0-.8,1.916H18.886a1.181,1.181,0,0,0-1.181,1.181v4.721a1.181,1.181,0,0,0,1.181,1.181h4.079a11.826,11.826,0,0,0,.8,1.916l-1.624,1.625H3.542a1.181,1.181,0,0,1-1.181-1.181V11.8H35.922a1.161,1.161,0,0,0,.3,1.094l2.889,2.892a11.826,11.826,0,0,0-.8,1.916H34.231a1.181,1.181,0,0,0-1.181,1.181v4.721a1.181,1.181,0,0,0,1.181,1.181h4.079a11.826,11.826,0,0,0,.8,1.916L36.218,29.6a1.179,1.179,0,0,0,0,1.669l3.341,3.341a1.179,1.179,0,0,0,1.669,0l2.892-2.889a11.826,11.826,0,0,0,1.916.8v4.079a1.181,1.181,0,0,0,1.181,1.181h4.721a1.181,1.181,0,0,0,1.181-1.181ZM2.361,3.542A1.181,1.181,0,0,1,3.542,2.361H55.479a1.181,1.181,0,0,1,1.181,1.181V9.154l-1.624,1.624a11.826,11.826,0,0,0-1.916-.8V5.9a1.181,1.181,0,0,0-1.181-1.181H47.216A1.181,1.181,0,0,0,46.036,5.9V9.981a11.826,11.826,0,0,0-1.916.8L41.228,7.889a1.179,1.179,0,0,0-1.669,0l-1.55,1.554H2.361Zm49.31,26.92a1.179,1.179,0,0,0-.915,1.149v3.8H48.4v-3.8a1.179,1.179,0,0,0-.915-1.149,9.589,9.589,0,0,1-2.929-1.219,1.181,1.181,0,0,0-1.466.164l-2.695,2.7-1.677-1.677,2.7-2.691a1.181,1.181,0,0,0,.164-1.466,9.583,9.583,0,0,1-1.22-2.927,1.179,1.179,0,0,0-1.149-.918h-3.8v-2.36h3.8a1.179,1.179,0,0,0,1.149-.915,9.588,9.588,0,0,1,1.218-2.929,1.181,1.181,0,0,0-.164-1.466l-2.7-2.695,1.677-1.671,2.691,2.7a1.181,1.181,0,0,0,1.466.164,9.583,9.583,0,0,1,2.929-1.218,1.179,1.179,0,0,0,.918-1.149V7.082h2.361v3.8a1.179,1.179,0,0,0,.915,1.149A9.589,9.589,0,0,1,54.6,13.251a1.181,1.181,0,0,0,1.465-.164l2.692-2.695,1.677,1.677-2.7,2.691a1.181,1.181,0,0,0-.164,1.466,9.583,9.583,0,0,1,1.218,2.929,1.179,1.179,0,0,0,1.149.918h3.8v2.361h-3.8a1.179,1.179,0,0,0-1.149.915,9.59,9.59,0,0,1-1.218,2.929,1.181,1.181,0,0,0,.164,1.466l2.7,2.695-1.677,1.677-2.692-2.708a1.181,1.181,0,0,0-1.466-.164A9.574,9.574,0,0,1,51.671,30.461Zm0,0" fill="#f77f12"/>
  <path id="Path_94" data-name="Path 94" d="M287.871,268.985h-4.079a11.833,11.833,0,0,0-.8-1.916l2.889-2.892a1.179,1.179,0,0,0,0-1.669l-3.341-3.341a1.179,1.179,0,0,0-1.669,0l-2.892,2.889a11.823,11.823,0,0,0-1.916-.8v-4.079A1.181,1.181,0,0,0,274.886,256h-4.721a1.181,1.181,0,0,0-1.181,1.181v4.079a11.823,11.823,0,0,0-1.916.8l-2.892-2.889a1.179,1.179,0,0,0-1.669,0l-3.341,3.341a1.179,1.179,0,0,0,0,1.669l2.889,2.892a11.832,11.832,0,0,0-.8,1.916H257.18A1.181,1.181,0,0,0,256,270.165v4.721a1.181,1.181,0,0,0,1.181,1.181h4.079a11.829,11.829,0,0,0,.8,1.916l-2.889,2.892a1.179,1.179,0,0,0,0,1.669l3.341,3.341a1.179,1.179,0,0,0,1.669,0L267.068,283a11.823,11.823,0,0,0,1.916.8v4.079a1.181,1.181,0,0,0,1.181,1.18h4.721a1.181,1.181,0,0,0,1.181-1.181v-4.079a11.826,11.826,0,0,0,1.916-.8l2.892,2.889a1.179,1.179,0,0,0,1.669,0l3.341-3.341a1.179,1.179,0,0,0,0-1.669L283,277.983a11.834,11.834,0,0,0,.8-1.916h4.079a1.181,1.181,0,0,0,1.181-1.181v-4.721a1.181,1.181,0,0,0-1.18-1.18Zm-1.181,4.722h-3.8a1.179,1.179,0,0,0-1.149.915,9.59,9.59,0,0,1-1.218,2.929,1.181,1.181,0,0,0,.164,1.466l2.7,2.695-1.677,1.677-2.691-2.7a1.181,1.181,0,0,0-1.466-.164,9.584,9.584,0,0,1-2.929,1.218,1.179,1.179,0,0,0-.918,1.149v3.8h-2.359v-3.8a1.179,1.179,0,0,0-.915-1.149,9.588,9.588,0,0,1-2.929-1.218,1.181,1.181,0,0,0-1.466.164l-2.695,2.7-1.677-1.677,2.7-2.691a1.181,1.181,0,0,0,.164-1.465,9.583,9.583,0,0,1-1.218-2.929,1.179,1.179,0,0,0-1.149-.918h-3.8v-2.361h3.8a1.179,1.179,0,0,0,1.149-.915,9.589,9.589,0,0,1,1.218-2.929,1.181,1.181,0,0,0-.164-1.465l-2.7-2.695,1.677-1.677,2.691,2.7a1.181,1.181,0,0,0,1.465.164,9.581,9.581,0,0,1,2.929-1.218,1.179,1.179,0,0,0,.918-1.149v-3.8h2.361v3.8a1.179,1.179,0,0,0,.915,1.149,9.589,9.589,0,0,1,2.929,1.218,1.181,1.181,0,0,0,1.466-.164l2.695-2.7,1.677,1.677-2.7,2.691a1.18,1.18,0,0,0-.164,1.465,9.587,9.587,0,0,1,1.218,2.929,1.181,1.181,0,0,0,1.149.918h3.8Zm0,0" transform="translate(-218.227 -218.227)" fill="#f77f12"/>
  <path id="Path_95" data-name="Path 95" d="M27.542,32H25.181a1.181,1.181,0,0,0,0,2.361h2.361a1.181,1.181,0,1,0,0-2.361Zm0,0" transform="translate(-20.458 -27.279)" fill="#f77f12"/>
  <path id="Path_96" data-name="Path 96" d="M68.721,32h-3.54a1.181,1.181,0,1,0,0,2.361h3.542a1.181,1.181,0,0,0,0-2.361Zm0,0" transform="translate(-54.557 -27.279)" fill="#f77f12"/>
  <path id="Path_97" data-name="Path 97" d="M121.443,32h-8.263a1.181,1.181,0,1,0,0,2.361h8.263a1.181,1.181,0,1,0,0-2.361Zm0,0" transform="translate(-95.475 -27.279)" fill="#f77f12"/>
  <path id="Path_98" data-name="Path 98" d="M295.082,98.361a1.181,1.181,0,1,0,0-2.361,7.082,7.082,0,0,0,0,14.164,1.181,1.181,0,0,0,0-2.361,4.722,4.722,0,1,1,0-9.443Zm0,0" transform="translate(-245.506 -81.836)" fill="#f77f12"/>
  <path id="Path_99" data-name="Path 99" d="M327.082,320a7.082,7.082,0,1,0,7.082,7.082A7.082,7.082,0,0,0,327.082,320Zm0,11.8a4.722,4.722,0,1,1,4.722-4.722A4.722,4.722,0,0,1,327.082,331.8Zm0,0" transform="translate(-272.784 -272.784)" fill="#f77f12"/>
</svg>
